<svg width="124" height="33" viewBox="0 0 124 33" fill="none" xmlns="http://www.w3.org/2000/svg">
<mask id="mask0_2964_1808" style="mask-type:luminance" maskUnits="userSpaceOnUse" x="1" y="0" width="122" height="33">
<path d="M122.543 0.519531H1.17969V32.5195H122.543V0.519531Z" fill="white"/>
</mask>
<g mask="url(#mask0_2964_1808)">
<path d="M14.5506 0.531006H1.17969V32.5079L14.5506 0.531006Z" fill="#C1C6CD"/>
<path d="M23.9531 0.531006H37.3066V32.5079L23.9531 0.531006Z" fill="#C1C6CD"/>
<path d="M19.2589 12.3167L27.7693 32.5079H22.1857L19.6422 26.0795H13.4141L19.2589 12.3167Z" fill="#C1C6CD"/>
<path d="M59.1261 20.8663L60.7027 25.3872C60.755 25.5004 60.8334 25.5527 60.9727 25.5527H64.0041C64.1696 25.5527 64.1957 25.4743 64.1696 25.3088L57.9066 7.91355C57.8804 7.77418 57.8543 7.74805 57.7149 7.74805H53.9519C53.8474 7.74805 53.7864 7.82644 53.7864 7.93968C53.7341 8.8543 53.6558 9.13305 53.5425 9.40308L47.959 25.2826C47.9328 25.4743 47.9938 25.5527 48.1506 25.5527H50.8596C51.0251 25.5527 51.1035 25.5004 51.1645 25.3349L52.654 20.8663H59.1261ZM53.5164 17.9134C54.3352 15.4396 55.4153 12.2689 55.8509 10.4571H55.877C56.4171 12.356 57.6888 16.119 58.2637 17.9134H53.5164Z" fill="#C1C6CD"/>
<path d="M72.2228 25.8227C73.8517 25.8227 75.5851 25.5266 77.3446 24.7687C77.484 24.7165 77.5101 24.6555 77.5101 24.5248C77.4579 24.037 77.3969 23.3315 77.3969 22.7914V6.41534C77.3969 6.31081 77.3969 6.25854 77.2663 6.25854H74.3133C74.2001 6.25854 74.1478 6.31081 74.1478 6.45018V11.9989C73.6862 11.9466 73.3639 11.9205 72.9806 11.9205C68.2159 11.9205 65.2891 15.065 65.2891 18.9936C65.2891 23.5492 68.2942 25.8227 72.2228 25.8227ZM74.1478 22.7914C73.66 22.9482 73.12 23.0092 72.5712 23.0092C70.4109 23.0092 68.6427 21.7897 68.6427 18.8281C68.6427 16.2061 70.4632 14.6556 72.8761 14.6556C73.3639 14.6556 73.7907 14.7079 74.1478 14.8473V22.7914Z" fill="#C1C6CD"/>
<path d="M86.9289 11.9204C82.861 11.9204 80.3438 15.0388 80.3438 18.889C80.3438 22.3297 82.3471 25.8227 86.8679 25.8227C90.6919 25.8227 93.3748 23.0091 93.3748 18.8018C93.3748 15.0911 91.1013 11.9204 86.9289 11.9204ZM86.7634 14.6556C89.063 14.6556 90.0386 16.6329 90.0386 18.889C90.0386 21.6764 88.6014 23.0614 86.9289 23.0614C84.8645 23.0614 83.6451 21.3279 83.6451 18.828C83.6451 16.2583 84.9429 14.6556 86.7634 14.6556Z" fill="#C1C6CD"/>
<path d="M96.426 6.25854C96.3128 6.25854 96.2344 6.31081 96.2344 6.45018V24.9865C96.2344 25.0649 96.3128 25.2043 96.426 25.2304C97.7239 25.6311 99.0828 25.8227 100.485 25.8227C104.501 25.8227 108.403 23.3315 108.403 18.3141C108.403 14.6818 105.912 11.9205 102.01 11.9205C101.112 11.9205 100.276 12.0599 99.5444 12.3038L99.5096 6.47631C99.5096 6.28468 99.4573 6.25854 99.2657 6.25854H96.426ZM105.067 18.6451C105.067 21.6503 103.011 23.0614 100.79 23.0614C100.328 23.0614 99.919 23.0353 99.5444 22.9221V15.0128C99.9713 14.8473 100.485 14.7079 101.435 14.7079C103.577 14.7079 105.067 16.0668 105.067 18.6451Z" fill="#C1C6CD"/>
<path d="M119.424 19.6207C120.748 19.6207 121.837 19.5945 122.211 19.5074C122.35 19.4813 122.403 19.429 122.429 19.3158C122.507 19.0196 122.542 18.4012 122.542 17.6433C122.542 15.065 120.992 11.9204 116.985 11.9204C112.891 11.9204 110.617 15.2566 110.617 19.0196C110.617 22.3558 112.377 25.8227 117.307 25.8227C119.154 25.8227 120.347 25.5265 121.375 25.0387C121.479 24.9864 121.532 24.8993 121.532 24.7425V22.4865C121.532 22.3558 121.453 22.3297 121.375 22.3819C120.347 22.8175 119.232 23.0352 118.013 23.0352C115.251 23.0352 113.997 21.5109 113.919 19.6207H119.424ZM113.919 17.2862C114.136 15.9622 114.973 14.5249 116.845 14.5249C118.91 14.5249 119.45 16.2583 119.45 17.0423C119.45 17.0684 119.45 17.1817 119.45 17.2601C119.337 17.2862 118.988 17.2862 117.96 17.2862H113.919Z" fill="#C1C6CD"/>
</g>
</svg>
