<svg width="123" height="33" viewBox="0 0 123 33" fill="none" xmlns="http://www.w3.org/2000/svg">
<g clip-path="url(#clip0_2864_1994)">
<path d="M14.0506 0.531006H0.679688V32.5079L14.0506 0.531006Z" fill="#353535"/>
<path d="M23.457 0.531006H36.8105V32.5079L23.457 0.531006Z" fill="#353535"/>
<path d="M18.755 12.3167L27.2654 32.508H21.6818L19.1383 26.0795H12.9102L18.755 12.3167Z" fill="#353535"/>
<path d="M58.6261 20.8663L60.2027 25.3872C60.255 25.5004 60.3334 25.5527 60.4727 25.5527H63.5041C63.6696 25.5527 63.6957 25.4743 63.6696 25.3088L57.4066 7.91355C57.3804 7.77418 57.3543 7.74805 57.2149 7.74805H53.4519C53.3474 7.74805 53.2864 7.82644 53.2864 7.93968C53.2341 8.8543 53.1558 9.13305 53.0425 9.40308L47.459 25.2826C47.4328 25.4743 47.4938 25.5527 47.6506 25.5527H50.3596C50.5251 25.5527 50.6035 25.5004 50.6645 25.3349L52.154 20.8663H58.6261ZM53.0164 17.9134C53.8352 15.4396 54.9153 12.2689 55.3509 10.4571H55.377C55.9171 12.356 57.1888 16.119 57.7637 17.9134H53.0164Z" fill="#353535"/>
<path d="M71.7228 25.8227C73.3517 25.8227 75.0851 25.5266 76.8446 24.7687C76.984 24.7165 77.0101 24.6555 77.0101 24.5248C76.9579 24.037 76.8969 23.3315 76.8969 22.7914V6.41534C76.8969 6.31081 76.8969 6.25854 76.7663 6.25854H73.8133C73.7001 6.25854 73.6478 6.31081 73.6478 6.45018V11.9989C73.1862 11.9466 72.8639 11.9205 72.4806 11.9205C67.7159 11.9205 64.7891 15.065 64.7891 18.9936C64.7891 23.5492 67.7942 25.8227 71.7228 25.8227V25.8227ZM73.6478 22.7914C73.16 22.9482 72.62 23.0092 72.0712 23.0092C69.9109 23.0092 68.1427 21.7897 68.1427 18.8281C68.1427 16.2061 69.9632 14.6556 72.3761 14.6556C72.8639 14.6556 73.2907 14.7079 73.6478 14.8473V22.7914Z" fill="#353535"/>
<path d="M86.429 11.9204C82.3611 11.9204 79.8438 15.0388 79.8438 18.889C79.8438 22.3297 81.8472 25.8227 86.368 25.8227C90.192 25.8227 92.8749 23.0091 92.8749 18.8018C92.8749 15.0911 90.6014 11.9204 86.429 11.9204ZM86.2635 14.6556C88.5631 14.6556 89.5387 16.6329 89.5387 18.889C89.5387 21.6764 88.1015 23.0614 86.429 23.0614C84.3646 23.0614 83.1451 21.3279 83.1451 18.828C83.1451 16.2583 84.443 14.6556 86.2635 14.6556V14.6556Z" fill="#353535"/>
<path d="M95.926 6.25854C95.8128 6.25854 95.7344 6.31081 95.7344 6.45018V24.9865C95.7344 25.0649 95.8128 25.2043 95.926 25.2304C97.2239 25.6311 98.5828 25.8227 99.9852 25.8227C104.001 25.8227 107.903 23.3315 107.903 18.3141C107.903 14.6818 105.412 11.9205 101.51 11.9205C100.612 11.9205 99.7761 12.0599 99.0444 12.3038L99.0096 6.47631C99.0096 6.28468 98.9573 6.25854 98.7657 6.25854H95.926ZM104.567 18.6451C104.567 21.6503 102.511 23.0614 100.29 23.0614C99.8284 23.0614 99.419 23.0353 99.0444 22.9221V15.0128C99.4713 14.8473 99.9852 14.7079 100.935 14.7079C103.077 14.7079 104.567 16.0668 104.567 18.6451Z" fill="#353535"/>
<path d="M118.924 19.6207C120.248 19.6207 121.337 19.5945 121.711 19.5074C121.85 19.4813 121.903 19.429 121.929 19.3158C122.007 19.0196 122.042 18.4012 122.042 17.6433C122.042 15.065 120.492 11.9204 116.485 11.9204C112.391 11.9204 110.117 15.2566 110.117 19.0196C110.117 22.3558 111.877 25.8227 116.807 25.8227C118.654 25.8227 119.847 25.5265 120.875 25.0387C120.979 24.9864 121.032 24.8993 121.032 24.7425V22.4865C121.032 22.3558 120.953 22.3297 120.875 22.3819C119.847 22.8175 118.732 23.0352 117.513 23.0352C114.751 23.0352 113.497 21.5109 113.419 19.6207H118.924ZM113.419 17.2862C113.636 15.9622 114.473 14.5249 116.345 14.5249C118.41 14.5249 118.95 16.2583 118.95 17.0423C118.95 17.0684 118.95 17.1817 118.95 17.2601C118.837 17.2862 118.488 17.2862 117.46 17.2862H113.419Z" fill="#353535"/>
</g>
<defs>
<clipPath id="clip0_2864_1994">
<rect width="121.363" height="32" fill="white" transform="translate(0.679688 0.519531)"/>
</clipPath>
</defs>
</svg>
