<svg width="95" height="33" viewBox="0 0 95 33" fill="none" xmlns="http://www.w3.org/2000/svg">
<mask id="mask0_2964_1854" style="mask-type:luminance" maskUnits="userSpaceOnUse" x="0" y="0" width="95" height="33">
<path d="M94.1945 0.519531H0.789062V32.5195H94.1945V0.519531Z" fill="white"/>
</mask>
<g mask="url(#mask0_2964_1854)">
<path d="M1.45312 0.519531V25.3318L4.77989 25.3441V13.5288H12.7769V10.4026H4.7671V3.63338H15.1952V0.519531H1.45312ZM21.1578 5.56569C21.7347 5.56569 22.288 5.34525 22.6959 4.95286C23.1039 4.56048 23.333 4.02829 23.333 3.47338C23.333 2.91846 23.1039 2.38628 22.6959 1.99389C22.288 1.60151 21.7347 1.38107 21.1578 1.38107C20.5809 1.38107 20.0277 1.60151 19.6197 1.99389C19.2118 2.38628 18.9826 2.91846 18.9826 3.47338C18.9826 4.02829 19.2118 4.56048 19.6197 4.95286C20.0277 5.34525 20.5809 5.56569 21.1578 5.56569ZM19.4816 8.67953V25.3441H22.8084V8.67953H19.4816Z" fill="#696D75"/>
<path fill-rule="evenodd" clip-rule="evenodd" d="M35.1052 8.19946C30.7037 8.19946 27.6328 11.781 27.6328 16.0395C27.6328 20.2979 30.7037 23.8795 35.1052 23.8795C37.1269 23.8795 38.7903 23.141 40.0058 21.9102V24.1256C40.0143 24.7876 39.8863 25.4446 39.6291 26.0586C39.372 26.6727 38.9909 27.2316 38.5078 27.7032C38.0248 28.1747 37.4493 28.5494 36.8148 28.8057C36.1802 29.062 35.4992 29.1948 34.811 29.1964C33.7489 29.1964 32.6997 28.8025 31.868 28.2364L30.2047 31.0056C31.4909 31.8053 32.9776 32.2563 34.5081 32.311C36.0385 32.3656 37.556 32.0219 38.9003 31.3162C40.2446 30.6104 41.366 29.5687 42.1461 28.3009C42.9262 27.0332 43.3361 25.5865 43.3326 24.1133V8.69177H40.0058V10.181C38.7903 8.95023 37.1269 8.21177 35.1052 8.21177V8.19946ZM30.9468 16.0395C30.9468 13.3933 33.0452 11.3133 35.4763 11.3133C37.9074 11.3133 39.993 13.4056 39.993 16.0395C39.993 18.6856 37.8946 20.7533 35.4763 20.7533C33.0452 20.7533 30.9468 18.6856 30.9468 16.0395Z" fill="#696D75"/>
<path d="M55.2823 11.3135C54.3308 11.3297 53.4242 11.7054 52.7586 12.3596C52.0929 13.0137 51.7217 13.8935 51.7252 14.8089V25.3443H48.3984V8.67965H51.7252V10.2058C52.2229 9.57127 52.8695 9.05882 53.6121 8.7102C54.3548 8.36157 55.1726 8.18664 55.9988 8.19965C58.3276 8.19965 60.1189 9.30734 61.1425 11.0058C61.7136 10.1544 62.4952 9.45236 63.4174 8.96265C64.3396 8.47294 65.3736 8.21079 66.427 8.19965C70.2016 8.19965 72.5687 11.1289 72.5687 14.7597V25.3443H69.2675V14.7966C69.271 13.8812 68.8998 13.0014 68.2341 12.3472C67.5685 11.6931 66.6619 11.3174 65.7104 11.3012C64.759 11.3174 63.8524 11.6931 63.1867 12.3472C62.5211 13.0014 62.1498 13.8812 62.1533 14.7966V25.332H58.8266V14.7966C58.8301 13.8833 58.4607 13.0053 57.7978 12.3515C57.1348 11.6977 56.2315 11.3205 55.2823 11.3012V11.3135Z" fill="#696D75"/>
<path fill-rule="evenodd" clip-rule="evenodd" d="M90.2689 10.5748C89.5134 9.81709 88.6052 9.21561 87.5998 8.80718C86.5943 8.39874 85.5128 8.19194 84.4214 8.19941C79.4825 8.19941 75.9766 12.2117 75.9766 17.0117C75.9766 21.8117 79.4825 25.824 84.4214 25.824C85.5125 25.8294 86.5933 25.6216 87.5984 25.2133C88.6036 24.805 89.5121 24.2046 90.2689 23.4486V25.344H93.5828V8.67941H90.2561V10.5748H90.2689ZM79.2905 17.0117C79.2905 13.8363 81.824 11.3133 84.7797 11.3133C87.7226 11.3133 90.2689 13.8363 90.2689 17.0117C90.2689 20.1871 87.7354 22.6979 84.7797 22.6979C81.8368 22.6979 79.2905 20.1871 79.2905 17.0117Z" fill="#696D75"/>
</g>
</svg>
