<svg width="94" height="33" viewBox="0 0 94 33" fill="none" xmlns="http://www.w3.org/2000/svg">
<g clip-path="url(#clip0_2864_1986)">
<path d="M0.953125 0.519531V25.3318L4.27989 25.3441V13.5288H12.2769V10.4026H4.2671V3.63338H14.6952V0.519531H0.953125ZM20.6578 5.56569C21.2347 5.56569 21.788 5.34525 22.1959 4.95286C22.6039 4.56048 22.833 4.02829 22.833 3.47338C22.833 2.91846 22.6039 2.38628 22.1959 1.99389C21.788 1.60151 21.2347 1.38107 20.6578 1.38107C20.0809 1.38107 19.5277 1.60151 19.1197 1.99389C18.7118 2.38628 18.4826 2.91846 18.4826 3.47338C18.4826 4.02829 18.7118 4.56048 19.1197 4.95286C19.5277 5.34525 20.0809 5.56569 20.6578 5.56569ZM18.9816 8.67953V25.3441H22.3084V8.67953H18.9816Z" fill="#353535"/>
<path fill-rule="evenodd" clip-rule="evenodd" d="M34.6052 8.19946C30.2037 8.19946 27.1328 11.781 27.1328 16.0395C27.1328 20.2979 30.2037 23.8795 34.6052 23.8795C36.6269 23.8795 38.2903 23.141 39.5058 21.9102V24.1256C39.5143 24.7876 39.3863 25.4446 39.1291 26.0586C38.872 26.6727 38.4909 27.2316 38.0078 27.7032C37.5248 28.1747 36.9493 28.5494 36.3148 28.8057C35.6802 29.062 34.9992 29.1948 34.311 29.1964C33.2489 29.1964 32.1997 28.8025 31.368 28.2364L29.7047 31.0056C30.9909 31.8053 32.4776 32.2563 34.0081 32.311C35.5385 32.3656 37.056 32.0219 38.4003 31.3162C39.7446 30.6104 40.866 29.5687 41.6461 28.3009C42.4262 27.0332 42.8361 25.5865 42.8326 24.1133V8.69177H39.5058V10.181C38.2903 8.95023 36.6269 8.21177 34.6052 8.21177V8.19946ZM30.4468 16.0395C30.4468 13.3933 32.5452 11.3133 34.9763 11.3133C37.4074 11.3133 39.493 13.4056 39.493 16.0395C39.493 18.6856 37.3946 20.7533 34.9763 20.7533C32.5452 20.7533 30.4468 18.6856 30.4468 16.0395Z" fill="#353535"/>
<path d="M54.7823 11.3135C53.8308 11.3297 52.9242 11.7054 52.2586 12.3596C51.5929 13.0137 51.2217 13.8935 51.2252 14.8089V25.3443H47.8984V8.67965H51.2252V10.2058C51.7229 9.57127 52.3695 9.05882 53.1121 8.7102C53.8548 8.36157 54.6726 8.18664 55.4988 8.19965C57.8276 8.19965 59.6189 9.30734 60.6425 11.0058C61.2136 10.1544 61.9952 9.45236 62.9174 8.96265C63.8396 8.47294 64.8736 8.21079 65.927 8.19965C69.7016 8.19965 72.0687 11.1289 72.0687 14.7597V25.3443H68.7675V14.7966C68.771 13.8812 68.3998 13.0014 67.7341 12.3472C67.0685 11.6931 66.1619 11.3174 65.2104 11.3012C64.259 11.3174 63.3524 11.6931 62.6867 12.3472C62.0211 13.0014 61.6498 13.8812 61.6533 14.7966V25.332H58.3266V14.7966C58.3301 13.8833 57.9607 13.0053 57.2978 12.3515C56.6348 11.6977 55.7315 11.3205 54.7823 11.3012V11.3135Z" fill="#353535"/>
<path fill-rule="evenodd" clip-rule="evenodd" d="M89.765 10.5748C89.0095 9.81709 88.1013 9.21561 87.0959 8.80718C86.0904 8.39874 85.0089 8.19194 83.9175 8.19941C78.9786 8.19941 75.4727 12.2117 75.4727 17.0117C75.4727 21.8117 78.9786 25.824 83.9175 25.824C85.0086 25.8294 86.0894 25.6216 87.0945 25.2133C88.0997 24.805 89.0082 24.2046 89.765 23.4486V25.344H93.0789V8.67941H89.7522V10.5748H89.765ZM78.7866 17.0117C78.7866 13.8363 81.3201 11.3133 84.2758 11.3133C87.2187 11.3133 89.765 13.8363 89.765 17.0117C89.765 20.1871 87.2315 22.6979 84.2758 22.6979C81.3329 22.6979 78.7866 20.1871 78.7866 17.0117Z" fill="#353535"/>
</g>
<defs>
<clipPath id="clip0_2864_1986">
<rect width="93.4054" height="32" fill="white" transform="translate(0.289062 0.519531)"/>
</clipPath>
</defs>
</svg>
