<svg width="103" height="33" viewBox="0 0 103 33" fill="none" xmlns="http://www.w3.org/2000/svg">
<g clip-path="url(#clip0_2864_1991)">
<path d="M13.4704 11.9377V15.3559H21.7195C21.5005 17.2468 20.8434 18.7013 19.8214 19.6468C18.6534 20.8104 16.7554 22.1195 13.4704 22.1195C8.43336 22.1195 4.49134 18.0468 4.49134 13.0286C4.49134 8.01044 8.36036 3.93771 13.4704 3.93771C16.1714 3.93771 18.2154 5.02862 19.6754 6.41044L22.0845 4.01044C20.0404 2.0468 17.2664 0.519531 13.4704 0.519531C6.53535 0.519531 0.695312 6.11953 0.695312 13.0286C0.695312 19.9377 6.53535 25.5377 13.4704 25.5377C17.1934 25.5377 20.0404 24.3013 22.2305 22.0468C24.4935 19.7923 25.2235 16.5923 25.2235 14.0468C25.2235 13.2468 25.1505 12.5195 25.0775 11.9377H13.4704Z" fill="#353535"/>
<path d="M35.4417 9.10132C30.9886 9.10132 27.2656 12.5195 27.2656 17.174C27.2656 21.8286 30.9156 25.2468 35.4417 25.2468C39.9677 25.2468 43.6177 21.9013 43.6177 17.2468C43.6177 12.5195 39.9677 9.10132 35.4417 9.10132ZM35.4417 22.1195C32.9597 22.1195 30.8426 20.0831 30.8426 17.2468C30.8426 14.3377 32.9597 12.374 35.4417 12.374C37.9237 12.374 40.0407 14.3377 40.0407 17.2468C40.0407 20.0831 37.9237 22.1195 35.4417 22.1195Z" fill="#353535"/>
<path d="M75.3732 10.9195H75.2272C74.4242 9.97405 72.8912 9.10132 70.9202 9.10132C66.8321 9.10132 63.3281 12.5922 63.3281 17.174C63.3281 21.6831 66.8321 25.2468 70.9202 25.2468C72.8912 25.2468 74.4242 24.374 75.2272 23.4286H75.3732V24.5922C75.3732 27.6468 73.6942 29.3195 71.0662 29.3195C68.8762 29.3195 67.5622 27.7922 66.9781 26.4104L63.9121 27.7195C64.7881 29.8286 67.1971 32.5195 71.1392 32.5195C75.3002 32.5195 78.8772 30.0468 78.8772 24.0831V9.53768H75.5192V10.9195H75.3732ZM71.2852 22.1195C68.8032 22.1195 66.9781 20.0104 66.9781 17.2468C66.9781 14.4104 68.8762 12.374 71.2852 12.374C73.6942 12.374 75.5922 14.4831 75.5922 17.3195C75.6652 20.0831 73.7672 22.1195 71.2852 22.1195Z" fill="#353535"/>
<path d="M53.6214 9.10132C49.1683 9.10132 45.4453 12.5195 45.4453 17.174C45.4453 21.8286 49.0953 25.2468 53.6214 25.2468C58.1474 25.2468 61.7974 21.9013 61.7974 17.2468C61.7974 12.5195 58.1474 9.10132 53.6214 9.10132ZM53.6214 22.1195C51.1393 22.1195 49.0223 20.0831 49.0223 17.2468C49.0223 14.3377 51.1393 12.374 53.6214 12.374C56.1034 12.374 58.2204 14.3377 58.2204 17.2468C58.2204 20.0831 56.1034 22.1195 53.6214 22.1195Z" fill="#353535"/>
<path d="M81.5781 0.883057H85.0821V25.3194H81.5781V0.883057Z" fill="#353535"/>
<path d="M95.8894 22.1195C94.0644 22.1195 92.8234 21.3195 91.9474 19.6468L102.824 15.2104L102.459 14.265C101.802 12.4468 99.6854 9.10132 95.5244 9.10132C91.3634 9.10132 87.8594 12.374 87.8594 17.174C87.8594 21.6831 91.2904 25.2468 95.8894 25.2468C99.6124 25.2468 101.729 22.9922 102.678 21.6831L99.9045 19.865C98.9554 21.2468 97.7144 22.1195 95.8894 22.1195ZM95.6704 12.1559C97.1304 12.1559 98.3714 12.8831 98.7364 13.9013L91.4364 16.9559C91.3634 13.6104 93.8454 12.1559 95.6704 12.1559Z" fill="#353535"/>
</g>
<defs>
<clipPath id="clip0_2864_1991">
<rect width="102.128" height="32" fill="white" transform="translate(0.695312 0.519531)"/>
</clipPath>
</defs>
</svg>
