<svg width="104" height="33" viewBox="0 0 104 33" fill="none" xmlns="http://www.w3.org/2000/svg">
<g clip-path="url(#clip0_2964_1821)">
<mask id="mask0_2964_1821" style="mask-type:luminance" maskUnits="userSpaceOnUse" x="1" y="0" width="103" height="33">
<path d="M103.323 0.519531H1.19531V32.5195H103.323V0.519531Z" fill="white"/>
</mask>
<g mask="url(#mask0_2964_1821)">
<path d="M13.9704 11.9377V15.3559H22.2195C22.0005 17.2468 21.3434 18.7013 20.3214 19.6468C19.1534 20.8104 17.2554 22.1195 13.9704 22.1195C8.93336 22.1195 4.99134 18.0468 4.99134 13.0286C4.99134 8.01044 8.86036 3.93771 13.9704 3.93771C16.6714 3.93771 18.7154 5.02862 20.1754 6.41044L22.5845 4.01044C20.5404 2.0468 17.7664 0.519531 13.9704 0.519531C7.03535 0.519531 1.19531 6.11953 1.19531 13.0286C1.19531 19.9377 7.03535 25.5377 13.9704 25.5377C17.6934 25.5377 20.5404 24.3013 22.7305 22.0468C24.9935 19.7923 25.7235 16.5923 25.7235 14.0468C25.7235 13.2468 25.6505 12.5195 25.5775 11.9377H13.9704Z" fill="#C1C6CD"/>
<path d="M35.9417 9.10132C31.4886 9.10132 27.7656 12.5195 27.7656 17.174C27.7656 21.8286 31.4156 25.2468 35.9417 25.2468C40.4677 25.2468 44.1177 21.9013 44.1177 17.2468C44.1177 12.5195 40.4677 9.10132 35.9417 9.10132ZM35.9417 22.1195C33.4597 22.1195 31.3426 20.0831 31.3426 17.2468C31.3426 14.3377 33.4597 12.374 35.9417 12.374C38.4237 12.374 40.5407 14.3377 40.5407 17.2468C40.5407 20.0831 38.4237 22.1195 35.9417 22.1195Z" fill="#C1C6CD"/>
<path d="M75.8732 10.9195H75.7272C74.9242 9.97405 73.3912 9.10132 71.4202 9.10132C67.3321 9.10132 63.8281 12.5922 63.8281 17.174C63.8281 21.6831 67.3321 25.2468 71.4202 25.2468C73.3912 25.2468 74.9242 24.374 75.7272 23.4286H75.8732V24.5922C75.8732 27.6468 74.1942 29.3195 71.5662 29.3195C69.3762 29.3195 68.0622 27.7922 67.4781 26.4104L64.4121 27.7195C65.2881 29.8286 67.6971 32.5195 71.6392 32.5195C75.8002 32.5195 79.3772 30.0468 79.3772 24.0831V9.53768H76.0192V10.9195H75.8732ZM71.7852 22.1195C69.3032 22.1195 67.4781 20.0104 67.4781 17.2468C67.4781 14.4104 69.3762 12.374 71.7852 12.374C74.1942 12.374 76.0922 14.4831 76.0922 17.3195C76.1652 20.0831 74.2672 22.1195 71.7852 22.1195Z" fill="#C1C6CD"/>
<path d="M54.1214 9.10132C49.6683 9.10132 45.9453 12.5195 45.9453 17.174C45.9453 21.8286 49.5953 25.2468 54.1214 25.2468C58.6474 25.2468 62.2974 21.9013 62.2974 17.2468C62.2974 12.5195 58.6474 9.10132 54.1214 9.10132ZM54.1214 22.1195C51.6393 22.1195 49.5223 20.0831 49.5223 17.2468C49.5223 14.3377 51.6393 12.374 54.1214 12.374C56.6034 12.374 58.7204 14.3377 58.7204 17.2468C58.7204 20.0831 56.6034 22.1195 54.1214 22.1195Z" fill="#C1C6CD"/>
<path d="M82.0781 0.883057H85.5821V25.3194H82.0781V0.883057Z" fill="#C1C6CD"/>
<path d="M96.3894 22.1195C94.5644 22.1195 93.3234 21.3195 92.4474 19.6468L103.324 15.2104L102.959 14.265C102.302 12.4468 100.185 9.10132 96.0244 9.10132C91.8634 9.10132 88.3594 12.374 88.3594 17.174C88.3594 21.6831 91.7904 25.2468 96.3894 25.2468C100.112 25.2468 102.229 22.9922 103.178 21.6831L100.404 19.865C99.4554 21.2468 98.2144 22.1195 96.3894 22.1195ZM96.1704 12.1559C97.6304 12.1559 98.8714 12.8831 99.2364 13.9013L91.9364 16.9559C91.8634 13.6104 94.3454 12.1559 96.1704 12.1559Z" fill="#C1C6CD"/>
</g>
</g>
<defs>
<clipPath id="clip0_2964_1821">
<rect width="103" height="33" fill="white" transform="translate(0.5)"/>
</clipPath>
</defs>
</svg>
