<svg width="108" height="33" viewBox="0 0 108 33" fill="none" xmlns="http://www.w3.org/2000/svg">
<g clip-path="url(#clip0_2964_1847)">
<mask id="mask0_2964_1847" style="mask-type:luminance" maskUnits="userSpaceOnUse" x="0" y="0" width="108" height="33">
<path d="M107.214 0.519531H0.546875V32.5195H107.214V0.519531Z" fill="white"/>
</mask>
<g mask="url(#mask0_2964_1847)">
<path d="M32.5575 14.8449H22.8061L31.2509 9.9702L29.5762 7.06886L21.1303 11.9435L26.005 3.50086L23.1037 1.8262L18.2279 10.2667V0.519531H14.8765V10.2678L10.0007 1.8262L7.09835 3.50086L11.973 11.9414L3.52928 7.06886L1.85355 9.9702L10.2983 14.8449H0.546875V18.1953H10.2973L1.85355 23.0699L3.52821 25.9713L11.9741 21.0966L7.09835 29.5393L9.99968 31.2139L14.8765 22.7723V32.5195H18.2279V22.5633L23.1933 31.1606L25.9143 29.5905L20.9479 20.991L29.5741 25.9702L31.2498 23.0689L22.8061 18.1942H32.5565L32.5575 14.8449ZM16.5522 21.0742C15.9539 21.0743 15.3615 20.9565 14.8087 20.7276C14.256 20.4987 13.7537 20.1633 13.3307 19.7402C12.9076 19.3173 12.5719 18.8151 12.3429 18.2624C12.1139 17.7096 11.996 17.1173 11.9959 16.519C11.9958 15.9207 12.1136 15.3283 12.3425 14.7755C12.5714 14.2228 12.9069 13.7205 13.3299 13.2975C13.7528 12.8744 14.255 12.5387 14.8078 12.3097C15.3605 12.0807 15.9528 11.9628 16.5511 11.9627C17.7593 11.9626 18.9182 12.4424 19.7727 13.2967C20.6272 14.151 21.1073 15.3097 21.1074 16.5179C21.1075 17.7261 20.6277 18.885 19.7734 19.7395C18.9191 20.594 17.7604 21.0741 16.5522 21.0742Z" fill="#C1C6CD"/>
<path d="M41.1953 28.2243V4.81519H45.4918V28.2243H41.1953ZM82.4038 12.316H86.5062V14.2573C87.3788 12.7053 89.415 11.8637 91.159 11.8637C93.3244 11.8637 95.0684 12.8024 95.8759 14.5144C97.1345 12.5731 98.8156 11.8637 100.916 11.8637C103.856 11.8637 106.665 13.6419 106.665 17.9096V28.2243H102.499V18.7832C102.499 17.0691 101.658 15.7752 99.6871 15.7752C97.8449 15.7752 96.7462 17.1992 96.7462 18.9133V28.2253H92.4839V18.7832C92.4839 17.0691 91.6113 15.7752 89.6721 15.7752C87.798 15.7752 86.6993 17.1672 86.6993 18.9133V28.2253H82.4038V12.316ZM55.2017 28.6851C50.3612 28.6851 46.8561 25.0936 46.8561 20.2701C46.8561 15.5235 50.3505 11.8477 55.2017 11.8477C60.0764 11.8477 63.5473 15.5576 63.5473 20.2701C63.5473 25.0595 60.0401 28.6851 55.2017 28.6851ZM55.2017 15.7411C54.0011 15.7428 52.8501 16.2206 52.0014 17.07C51.1528 17.9193 50.6756 19.0705 50.6748 20.2712C50.6756 21.4718 51.1528 22.6231 52.0014 23.4724C52.8501 24.3217 54.0011 24.7996 55.2017 24.8013C56.4021 24.7993 57.5529 24.3213 58.4013 23.472C59.2497 22.6228 59.7267 21.4716 59.7276 20.2712C59.7267 19.0708 59.2497 17.9196 58.4013 17.0703C57.5529 16.2211 56.4021 15.7431 55.2017 15.7411ZM72.7238 28.6851C67.8833 28.6851 64.3782 25.0936 64.3782 20.2701C64.3782 15.5235 67.8726 11.8477 72.7238 11.8477C77.5985 11.8477 81.0694 15.5576 81.0694 20.2701C81.0694 25.0595 77.5601 28.6851 72.7238 28.6851ZM72.7238 15.6867C71.5094 15.6887 70.3453 16.1722 69.4869 17.0312C68.6285 17.8902 68.1457 19.0547 68.1446 20.2691C68.1457 21.4835 68.6285 22.6479 69.4869 23.5069C70.3453 24.3659 71.5094 24.8494 72.7238 24.8515C73.9382 24.8494 75.1023 24.3659 75.9608 23.5069C76.8192 22.6479 77.3019 21.4835 77.303 20.2691C77.3019 19.0547 76.8192 17.8902 75.9608 17.0312C75.1023 16.1722 73.9382 15.6887 72.7238 15.6867Z" fill="#C1C6CD"/>
</g>
</g>
<defs>
<clipPath id="clip0_2964_1847">
<rect width="107" height="33" fill="white" transform="translate(0.5)"/>
</clipPath>
</defs>
</svg>
