<svg width="107" height="33" viewBox="0 0 107 33" fill="none" xmlns="http://www.w3.org/2000/svg">
<g clip-path="url(#clip0_2864_1995)">
<path d="M32.0536 14.8449H22.3022L30.747 9.9702L29.0723 7.06886L20.6264 11.9435L25.5011 3.50086L22.5998 1.8262L17.724 10.2667V0.519531H14.3726V10.2678L9.49684 1.8262L6.59444 3.50086L11.4691 11.9414L3.02537 7.06886L1.34964 9.9702L9.79444 14.8449H0.0429688V18.1953H9.79337L1.34964 23.0699L3.0243 25.9713L11.4702 21.0966L6.59444 29.5393L9.49577 31.2139L14.3726 22.7723V32.5195H17.724V22.5633L22.6894 31.1606L25.4104 29.5905L20.444 20.991L29.0702 25.9702L30.7459 23.0689L22.3022 18.1942H32.0526V14.8449H32.0536ZM16.0483 21.0742C15.45 21.0743 14.8576 20.9565 14.3048 20.7276C13.7521 20.4987 13.2498 20.1633 12.8268 19.7402C12.4037 19.3173 12.068 18.8151 11.839 18.2624C11.61 17.7096 11.4921 17.1173 11.492 16.519C11.4919 15.9207 11.6097 15.3283 11.8386 14.7755C12.0675 14.2228 12.403 13.7205 12.826 13.2975C13.2489 12.8744 13.7511 12.5387 14.3039 12.3097C14.8566 12.0807 15.4489 11.9628 16.0472 11.9627C17.2554 11.9626 18.4143 12.4424 19.2688 13.2967C20.1233 14.151 20.6034 15.3097 20.6035 16.5179C20.6036 17.7261 20.1238 18.885 19.2695 19.7395C18.4152 20.594 17.2565 21.0741 16.0483 21.0742Z" fill="#353535"/>
<path d="M40.6914 28.2243V4.81519H44.9879V28.2243H40.6914ZM81.8999 12.316H86.0023V14.2573C86.8749 12.7053 88.9111 11.8637 90.6551 11.8637C92.8205 11.8637 94.5645 12.8024 95.372 14.5144C96.6306 12.5731 98.3117 11.8637 100.412 11.8637C103.352 11.8637 106.161 13.6419 106.161 17.9096V28.2243H101.995V18.7832C101.995 17.0691 101.154 15.7752 99.1832 15.7752C97.341 15.7752 96.2423 17.1992 96.2423 18.9133V28.2253H91.98V18.7832C91.98 17.0691 91.1074 15.7752 89.1682 15.7752C87.2941 15.7752 86.1954 17.1672 86.1954 18.9133V28.2253H81.8999V12.316ZM54.6978 28.6851C49.8573 28.6851 46.3522 25.0936 46.3522 20.2701C46.3522 15.5235 49.8466 11.8477 54.6978 11.8477C59.5725 11.8477 63.0434 15.5576 63.0434 20.2701C63.0434 25.0595 59.5362 28.6851 54.6978 28.6851ZM54.6978 15.7411C53.4972 15.7428 52.3462 16.2206 51.4975 17.07C50.6489 17.9193 50.1717 19.0705 50.1709 20.2712C50.1717 21.4718 50.6489 22.6231 51.4975 23.4724C52.3462 24.3217 53.4972 24.7996 54.6978 24.8013C55.8982 24.7993 57.049 24.3213 57.8974 23.472C58.7458 22.6228 59.2228 21.4716 59.2237 20.2712C59.2228 19.0708 58.7458 17.9196 57.8974 17.0703C57.049 16.2211 55.8982 15.7431 54.6978 15.7411ZM72.2199 28.6851C67.3794 28.6851 63.8743 25.0936 63.8743 20.2701C63.8743 15.5235 67.3687 11.8477 72.2199 11.8477C77.0946 11.8477 80.5655 15.5576 80.5655 20.2701C80.5655 25.0595 77.0562 28.6851 72.2199 28.6851ZM72.2199 15.6867C71.0055 15.6887 69.8414 16.1722 68.983 17.0312C68.1246 17.8902 67.6418 19.0547 67.6407 20.2691C67.6418 21.4835 68.1246 22.6479 68.983 23.5069C69.8414 24.3659 71.0055 24.8494 72.2199 24.8515C73.4343 24.8494 74.5984 24.3659 75.4569 23.5069C76.3153 22.6479 76.798 21.4835 76.7991 20.2691C76.798 19.0547 76.3153 17.8902 75.4569 17.0312C74.5984 16.1722 73.4343 15.6887 72.2199 15.6867Z" fill="#353535"/>
</g>
<defs>
<clipPath id="clip0_2864_1995">
<rect width="106.667" height="32" fill="white" transform="translate(0.0429688 0.519531)"/>
</clipPath>
</defs>
</svg>
