<svg width="104" height="33" viewBox="0 0 104 33" fill="none" xmlns="http://www.w3.org/2000/svg">
<g clip-path="url(#clip0_2864_1992)">
<path d="M27.0379 0.519531H5.36051C2.51001 0.519531 0.199219 2.83032 0.199219 5.68082V27.3582C0.199219 30.2088 2.51001 32.5195 5.36051 32.5195H27.0379C29.8885 32.5195 32.1992 30.2088 32.1992 27.3582V5.68082C32.1992 2.83032 29.8885 0.519531 27.0379 0.519531Z" fill="#050505"/>
<path fill-rule="evenodd" clip-rule="evenodd" d="M21.8784 5.68091H18.7816L21.3623 10.3261L15.6849 5.68091H12.5881L15.4268 11.3583L9.49131 5.68091H6.39453L9.49131 12.9067L6.39453 27.3583H9.49131L15.4268 11.8745L12.5881 27.3583H15.6849L21.3623 10.8422L18.7816 27.3583H21.8784L27.5558 9.29381L21.8784 5.68091Z" fill="white"/>
<path fill-rule="evenodd" clip-rule="evenodd" d="M95.1657 7.74529C100.327 7.74529 103.424 11.5981 103.424 16.5195C103.424 21.4227 100.327 25.2937 95.1657 25.2937C90.0044 25.2937 86.9076 21.4409 86.9076 16.5195C86.9076 11.5981 90.0044 7.74529 95.1657 7.74529ZM71.9399 8.77755V24.7775H68.327V17.0356V13.1646V9.29368L71.9399 8.77755ZM85.3592 8.26142V11.8743L83.2947 12.1324C81.4883 12.3905 80.198 13.4227 80.198 15.4769V24.7775H76.5851V15.4769C76.5851 11.0589 79.1657 9.03561 83.2947 8.51948L85.3592 8.26142ZM49.2302 8.26142C50.7786 8.26142 52.3796 8.90129 53.3592 10.3259C54.3425 9.02859 55.9399 8.26142 58.0044 8.26142C60.5851 8.26142 63.6818 9.80981 63.6818 14.9711V24.7775H60.0689V14.9711C60.0689 13.1646 58.9438 11.8743 57.2302 11.8743C55.5167 11.8743 54.3915 13.1646 54.3915 14.9711V24.7775H50.7786V14.9711C50.7786 13.1646 49.6532 11.8743 47.9399 11.8743C46.1959 11.8743 45.1012 13.1646 45.1012 14.9711V24.7775H41.4883V14.9711V9.29368L45.1012 8.77755V10.3259C46.1107 9.08477 47.1657 8.26142 49.2302 8.26142ZM95.1657 11.3582C92.0689 11.3582 90.5205 13.6695 90.5205 16.5195C90.5205 19.3695 92.0689 21.6808 95.1657 21.6808C98.2625 21.6808 99.8109 19.3582 99.8109 16.5195C99.8109 13.673 98.2625 11.3582 95.1657 11.3582ZM70.1334 2.06787C71.4238 2.06787 72.456 2.84206 72.456 4.39045C72.456 5.93884 71.4238 6.71303 70.1334 6.71303C68.8431 6.71303 67.8109 5.93884 67.8109 4.39045C67.8109 2.84206 68.8431 2.06787 70.1334 2.06787Z" fill="#353535"/>
</g>
<defs>
<clipPath id="clip0_2864_1992">
<rect width="103.226" height="32" fill="white" transform="translate(0.199219 0.519531)"/>
</clipPath>
</defs>
</svg>
