<svg width="105" height="33" viewBox="0 0 105 33" fill="none" xmlns="http://www.w3.org/2000/svg">
<g clip-path="url(#clip0_2964_1832)">
<mask id="mask0_2964_1832" style="mask-type:luminance" maskUnits="userSpaceOnUse" x="0" y="0" width="104" height="33">
<path d="M103.929 0.519531H0.703125V32.5195H103.929V0.519531Z" fill="white"/>
</mask>
<g mask="url(#mask0_2964_1832)">
<path fill-rule="evenodd" clip-rule="evenodd" d="M5.86442 0.519531H27.5418C30.3924 0.519531 32.7031 2.83032 32.7031 5.68082V27.3582C32.7031 30.2088 30.3924 32.5195 27.5418 32.5195H5.86442C3.01392 32.5195 0.703125 30.2088 0.703125 27.3582V5.68082C0.703125 2.83032 3.01392 0.519531 5.86442 0.519531ZM19.2855 5.68091H22.3823L28.0597 9.29381L22.3823 27.3583H19.2855L21.8662 10.8422L16.1888 27.3583H13.092L15.9307 11.8745L9.99522 27.3583H6.89844L9.99522 12.9067L6.89844 5.68091H9.99522L15.9307 11.3583L13.092 5.68091H16.1888L21.8662 10.3261L19.2855 5.68091Z" fill="#696D75"/>
<path fill-rule="evenodd" clip-rule="evenodd" d="M95.6696 7.74529C100.831 7.74529 103.928 11.5981 103.928 16.5195C103.928 21.4227 100.831 25.2937 95.6696 25.2937C90.5083 25.2937 87.4115 21.4409 87.4115 16.5195C87.4115 11.5981 90.5083 7.74529 95.6696 7.74529ZM72.4438 8.77755V24.7775H68.8309V17.0356V13.1646V9.29368L72.4438 8.77755ZM85.8631 8.26142V11.8743L83.7986 12.1324C81.9922 12.3905 80.7019 13.4227 80.7019 15.4769V24.7775H77.089V15.4769C77.089 11.0589 79.6696 9.03561 83.7986 8.51948L85.8631 8.26142ZM49.7341 8.26142C51.2825 8.26142 52.8835 8.90129 53.8631 10.3259C54.8464 9.02859 56.4438 8.26142 58.5083 8.26142C61.089 8.26142 64.1857 9.80981 64.1857 14.9711V24.7775H60.5728V14.9711C60.5728 13.1646 59.4477 11.8743 57.7341 11.8743C56.0206 11.8743 54.8954 13.1646 54.8954 14.9711V24.7775H51.2825V14.9711C51.2825 13.1646 50.1571 11.8743 48.4438 11.8743C46.6998 11.8743 45.6051 13.1646 45.6051 14.9711V24.7775H41.9922V14.9711V9.29368L45.6051 8.77755V10.3259C46.6146 9.08477 47.6696 8.26142 49.7341 8.26142ZM95.6696 11.3582C92.5728 11.3582 91.0244 13.6695 91.0244 16.5195C91.0244 19.3695 92.5728 21.6808 95.6696 21.6808C98.7664 21.6808 100.315 19.3582 100.315 16.5195C100.315 13.673 98.7664 11.3582 95.6696 11.3582ZM70.6373 2.06787C71.9277 2.06787 72.9599 2.84206 72.9599 4.39045C72.9599 5.93884 71.9277 6.71303 70.6373 6.71303C69.347 6.71303 68.3148 5.93884 68.3148 4.39045C68.3148 2.84206 69.347 2.06787 70.6373 2.06787Z" fill="#696D75"/>
</g>
</g>
<defs>
<clipPath id="clip0_2964_1832">
<rect width="104" height="33" fill="white" transform="translate(0.5)"/>
</clipPath>
</defs>
</svg>
