<svg width="111" height="33" viewBox="0 0 111 33" fill="none" xmlns="http://www.w3.org/2000/svg">
<g clip-path="url(#clip0_2964_1892)">
<path d="M15.4363 10.4408L12.8571 16.5741C12.5328 16.4109 11.7598 16.2284 11.0296 16.2284C10.2994 16.2284 9.56715 16.4109 8.85632 16.7567C7.454 17.4675 6.4189 18.8891 6.4189 20.94V32.1715H0V10.3163H6.23636V13.3829H6.35877C7.82122 11.433 10.0546 9.992 12.9602 9.992C14.0168 9.992 15.0326 10.196 15.4384 10.4387L15.4363 10.4408Z" fill="#696D75"/>
<path d="M14.1953 21.3072C14.1953 14.9914 18.5225 9.99414 25.0016 9.99414C30.8707 9.99414 35.0755 14.2806 35.0755 20.3129C35.0755 21.3695 34.9746 22.3638 34.7512 23.3194H20.0451C20.7151 25.6151 22.7059 27.4018 25.6909 27.4018C27.3359 27.4018 29.6724 26.8134 30.9308 25.8384L32.9216 30.6317C31.0726 31.8901 28.2507 32.5 25.7725 32.5C18.8468 32.5 14.1953 28.0311 14.1953 21.3094V21.3072ZM19.9227 19.2971H29.1634C29.1634 16.4946 27.2543 15.0107 24.9178 15.0107C22.2764 15.0107 20.4897 16.7158 19.9206 19.2971H19.9227Z" fill="#696D75"/>
<path d="M90.1536 0.5C92.3075 0.5 94.0728 2.2674 94.0728 4.4192C94.0728 6.571 92.3054 8.3384 90.1536 8.3384C88.0018 8.3384 86.2344 6.571 86.2344 4.4192C86.2344 2.2674 88.0018 0.5 90.1536 0.5ZM93.3619 32.1736H86.943V10.3184H93.3619V32.1736Z" fill="#696D75"/>
<path d="M52.8811 0.895142L52.8618 12.3907H52.7394C50.972 10.705 49.0628 10.0135 46.5653 10.0135C40.4105 10.0135 36.3281 14.9699 36.3281 21.2449C36.3281 27.5199 40.1464 32.4979 46.3613 32.4979C48.9619 32.4979 51.4187 31.6045 53.0035 29.5729H53.1861V32.1736H59.3V0.895142H52.8811ZM53.1861 26.9637H52.9734L51.5411 25.4755C50.609 26.4054 49.3334 26.9637 47.8431 26.9637C44.6991 26.9637 42.5001 24.4769 42.5001 21.2514C42.5001 18.0258 44.6991 15.539 47.8431 15.539C50.987 15.539 53.1861 18.0258 53.1861 21.2514V26.9637Z" fill="#696D75"/>
<path d="M77.3967 0.895142L77.3774 12.3907H77.255C75.4876 10.705 73.5785 10.0135 71.0809 10.0135C64.9262 10.0135 60.8438 14.9699 60.8438 21.2449C60.8438 27.5199 64.662 32.4979 70.8769 32.4979C73.4775 32.4979 75.9343 31.6045 77.5191 29.5729H77.7017V32.1736H83.8156V0.895142H77.3967ZM77.6716 26.9637H77.459L76.0266 25.4755C75.0946 26.4054 73.819 26.9637 72.3286 26.9637C69.1847 26.9637 66.9856 24.4769 66.9856 21.2514C66.9856 18.0258 69.1847 15.539 72.3286 15.539C75.4726 15.539 77.6716 18.0258 77.6716 21.2514V26.9637Z" fill="#696D75"/>
<path d="M105.808 10.3184H110.501V15.7817H105.808V32.1736H99.3896V15.7817H94.7188V10.3184H99.3896V4.37842H105.808V10.3184Z" fill="#696D75"/>
</g>
<defs>
<clipPath id="clip0_2964_1892">
<rect width="110.5" height="32" fill="white" transform="translate(0 0.5)"/>
</clipPath>
</defs>
</svg>
