<svg width="94" height="33" viewBox="0 0 94 33" fill="none" xmlns="http://www.w3.org/2000/svg">
<g clip-path="url(#clip0_2864_1996)">
<path d="M84.5151 13.5291C85.6302 13.5291 86.5342 12.6251 86.5342 11.51C86.5342 10.3949 85.6302 9.49097 84.5151 9.49097C83.4001 9.49097 82.4961 10.3949 82.4961 11.51C82.4961 12.6251 83.4001 13.5291 84.5151 13.5291Z" fill="#353535"/>
<path d="M55.678 20.1196C56.6685 20.1196 57.24 19.3767 57.2019 18.6529C57.1828 18.272 57.1447 18.0244 57.1066 17.8339C56.4971 15.2053 54.3638 13.2625 51.8304 13.2625C48.8209 13.2625 46.3828 15.9863 46.3828 19.3386C46.3828 22.691 48.8209 25.4149 51.8304 25.4149C53.7161 25.4149 55.0685 24.7291 56.04 23.6434C56.5161 23.1101 56.4209 22.291 55.8495 21.891C55.3733 21.5672 54.7828 21.6815 54.3447 22.0434C53.9257 22.4053 53.1257 23.1291 51.8304 23.1291C50.3066 23.1291 49.0114 21.8149 48.7257 20.0815H55.678V20.1196ZM51.8114 15.5672C53.1828 15.5672 54.3638 16.6339 54.8019 18.1005H48.8209C49.259 16.6148 50.44 15.5672 51.8114 15.5672Z" fill="#353535"/>
<path d="M46.2039 14.6846C46.2039 14.1132 45.7849 13.6561 45.2516 13.5608C43.5944 13.3132 42.0325 13.9227 41.1373 15.0466V14.8942C41.1373 14.1894 40.5658 13.7513 39.9944 13.7513C39.3658 13.7513 38.8516 14.2656 38.8516 14.8942V24.2275C38.8516 24.8371 39.3087 25.3704 39.9182 25.4085C40.5849 25.4466 41.1373 24.9323 41.1373 24.2656V19.4465C41.1373 17.3132 42.7373 15.5608 44.9468 15.8085C45.023 15.8085 45.0992 15.8085 45.1754 15.8085C45.7468 15.7704 46.2039 15.2751 46.2039 14.6846Z" fill="#353535"/>
<path d="M85.6568 15.6814C85.6568 15.0529 85.1425 14.5386 84.514 14.5386C83.8854 14.5386 83.3711 15.0529 83.3711 15.6814C83.3711 15.7195 83.3711 23.6815 83.3711 24.0434C83.3711 24.6719 83.8854 25.1862 84.514 25.1862C85.1425 25.1862 85.6568 24.6719 85.6568 24.0434C85.6568 23.7005 85.6568 15.7386 85.6568 15.6814Z" fill="#353535"/>
<path d="M68.6672 9.3577C68.6672 8.72913 68.1529 8.21484 67.5243 8.21484C66.8957 8.21484 66.3814 8.72913 66.3814 9.3577V14.4434C65.6005 13.6625 64.6291 13.2815 63.4672 13.2815C60.4576 13.2815 58.0195 16.0053 58.0195 19.3577C58.0195 22.7101 60.4576 25.4339 63.4672 25.4339C64.6291 25.4339 65.6195 25.0339 66.4005 24.253C66.4957 24.7863 66.9719 25.1863 67.5243 25.1863C68.1529 25.1863 68.6672 24.672 68.6672 24.0434V9.3577ZM63.4862 23.1672C61.7338 23.1672 60.3243 21.472 60.3243 19.3577C60.3243 17.2625 61.7338 15.5482 63.4862 15.5482C65.2386 15.5482 66.6481 17.2434 66.6481 19.3577C66.6481 21.472 65.2195 23.1672 63.4862 23.1672Z" fill="#353535"/>
<path d="M80.5929 9.3577C80.5929 8.72913 80.0786 8.21484 79.4501 8.21484C78.8215 8.21484 78.3072 8.72913 78.3072 9.3577V14.4434C77.5263 13.6625 76.5548 13.2815 75.3929 13.2815C72.3834 13.2815 69.9453 16.0053 69.9453 19.3577C69.9453 22.7101 72.3834 25.4339 75.3929 25.4339C76.5548 25.4339 77.5453 25.0339 78.3263 24.253C78.4215 24.7863 78.8977 25.1863 79.4501 25.1863C80.0786 25.1863 80.5929 24.672 80.5929 24.0434V9.3577ZM75.3929 23.1672C73.6406 23.1672 72.231 21.472 72.231 19.3577C72.231 17.2625 73.6406 15.5482 75.3929 15.5482C77.1453 15.5482 78.5548 17.2434 78.5548 19.3577C78.5548 21.472 77.1453 23.1672 75.3929 23.1672Z" fill="#353535"/>
<path d="M91.448 24.0624V15.5671H92.4575C92.9909 15.5671 93.4671 15.1671 93.5052 14.6147C93.5433 14.0243 93.0671 13.529 92.4956 13.529H91.448V11.929C91.448 11.3195 90.9909 10.7862 90.3813 10.7481C89.7147 10.71 89.1623 11.2243 89.1623 11.8909V13.5481H88.2099C87.6766 13.5481 87.2004 13.9481 87.1623 14.5005C87.1242 15.0909 87.6004 15.5862 88.1718 15.5862H89.1433V24.0814C89.1433 24.71 89.6575 25.2243 90.2861 25.2243C90.9528 25.1862 91.448 24.691 91.448 24.0624Z" fill="#353535"/>
<path d="M16.7822 32.4433C25.5976 32.4433 32.7441 25.2969 32.7441 16.4814C32.7441 7.66591 25.5976 0.519531 16.7822 0.519531C7.96669 0.519531 0.820312 7.66591 0.820312 16.4814C0.820312 25.2969 7.96669 32.4433 16.7822 32.4433Z" fill="#353535"/>
<path d="M27.429 16.4814C27.429 15.1861 26.3814 14.1575 25.1052 14.1575C24.4766 14.1575 23.9052 14.4052 23.4861 14.8052C21.8861 13.6623 19.6957 12.9195 17.2576 12.8242L18.3243 7.83374L21.7909 8.57659C21.829 9.45279 22.5528 10.1575 23.448 10.1575C24.3623 10.1575 25.1052 9.41469 25.1052 8.5004C25.1052 7.58612 24.3623 6.84326 23.448 6.84326C22.8004 6.84326 22.229 7.22421 21.9623 7.77659L18.0957 6.95755C17.9814 6.9385 17.8671 6.95755 17.7909 7.01469C17.6957 7.07183 17.6385 7.16707 17.6195 7.28136L16.4385 12.8433C13.9624 12.9195 11.7338 13.6623 10.1147 14.8242C9.69568 14.4242 9.12426 14.1766 8.49568 14.1766C7.20045 14.1766 6.17188 15.2242 6.17188 16.5004C6.17188 17.4528 6.7433 18.2528 7.5433 18.6147C7.50521 18.8433 7.48616 19.0718 7.48616 19.3195C7.48616 22.9004 11.6576 25.8147 16.8004 25.8147C21.9433 25.8147 26.1147 22.9195 26.1147 19.3195C26.1147 19.0909 26.0957 18.8433 26.0576 18.6147C26.8576 18.2528 27.429 17.4337 27.429 16.4814ZM11.4671 18.1385C11.4671 17.2242 12.21 16.4814 13.1243 16.4814C14.0385 16.4814 14.7814 17.2242 14.7814 18.1385C14.7814 19.0528 14.0385 19.7956 13.1243 19.7956C12.21 19.8147 11.4671 19.0528 11.4671 18.1385ZM20.7433 22.5385C19.6004 23.6814 17.429 23.7575 16.8004 23.7575C16.1528 23.7575 13.9814 23.6623 12.8576 22.5385C12.6862 22.3671 12.6862 22.1004 12.8576 21.929C13.029 21.7575 13.2957 21.7575 13.4671 21.929C14.1909 22.6528 15.7147 22.9004 16.8004 22.9004C17.8862 22.9004 19.429 22.6528 20.1338 21.929C20.3052 21.7575 20.5719 21.7575 20.7433 21.929C20.8957 22.1004 20.8957 22.3671 20.7433 22.5385ZM20.4385 19.8147C19.5243 19.8147 18.7814 19.0718 18.7814 18.1575C18.7814 17.2433 19.5243 16.5004 20.4385 16.5004C21.3528 16.5004 22.0957 17.2433 22.0957 18.1575C22.0957 19.0528 21.3528 19.8147 20.4385 19.8147Z" fill="white"/>
</g>
<defs>
<clipPath id="clip0_2864_1996">
<rect width="92.7619" height="32" fill="white" transform="translate(0.820312 0.519531)"/>
</clipPath>
</defs>
</svg>
