<svg width="141" height="33" viewBox="0 0 141 33" fill="none" xmlns="http://www.w3.org/2000/svg">
<g clip-path="url(#clip0_2964_1877)">
<mask id="mask0_2964_1877" style="mask-type:luminance" maskUnits="userSpaceOnUse" x="0" y="0" width="141" height="33">
<path d="M140.677 0.519531H0.421875V32.5195H140.677V0.519531Z" fill="white"/>
</mask>
<g mask="url(#mask0_2964_1877)">
<path fill-rule="evenodd" clip-rule="evenodd" d="M0.698359 22.5033C0.581933 22.8069 0.739889 22.8703 0.777336 22.924C1.12525 23.176 1.47861 23.3584 1.83266 23.5634C3.72542 24.5642 5.50925 24.857 7.3748 24.857C11.1739 24.857 13.5365 22.8349 13.5365 19.5804V19.5164C13.5365 16.507 10.8676 15.4109 8.37565 14.6279L8.04952 14.5223C6.16355 13.9109 4.53631 13.3785 4.53631 12.1394V12.076C4.53631 11.0139 5.48951 10.2309 6.96014 10.2309C8.5942 10.2309 10.5414 10.7749 11.7874 11.4633C11.7874 11.4633 12.1564 11.7016 12.2905 11.3455C12.3634 11.1528 12.9986 9.45272 13.0667 9.26209C13.1389 9.0626 13.0122 8.91213 12.8822 8.83451C11.4524 7.96302 9.47795 7.37068 7.43539 7.37068L7.05614 7.37204C3.577 7.37204 1.14636 9.47587 1.14636 12.4852V12.5499C1.14636 15.7227 3.82891 16.7576 6.33444 17.4725L6.73751 17.5977C8.5622 18.1588 10.1418 18.6463 10.1418 19.9263V19.9903C10.1418 21.1681 9.11369 22.0464 7.46603 22.0464C6.82534 22.0464 4.78346 22.0355 2.5707 20.6371C2.30312 20.4811 2.15061 20.3688 1.94431 20.2429C1.83538 20.1768 1.56304 20.0577 1.44457 20.4144L0.695635 22.4978L0.698359 22.5033ZM56.3212 22.4978C56.2048 22.8015 56.3627 22.8648 56.4015 22.9186C56.7481 23.1705 57.1028 23.353 57.4568 23.5579C59.3496 24.5588 61.1334 24.8515 62.999 24.8515C66.7981 24.8515 69.1607 22.8294 69.1607 19.5749V19.5109C69.1607 16.5016 66.4985 15.4054 63.9998 14.6224L63.6737 14.5169C61.7877 13.9055 60.1605 13.3731 60.1605 12.1339V12.0706C60.1605 11.0085 61.1137 10.2255 62.5843 10.2255C64.2184 10.2255 66.1588 10.7695 67.4116 11.4578C67.4116 11.4578 67.7806 11.6961 67.9154 11.34C67.9876 11.1474 68.6235 9.44728 68.6848 9.25664C68.7576 9.05715 68.6303 8.90668 68.5009 8.82906C67.0711 7.95758 65.0967 7.36523 63.0541 7.36523L62.6742 7.3666C59.1951 7.3666 56.7644 9.47043 56.7644 12.4798V12.5445C56.7644 15.7172 59.447 16.7521 61.9525 17.467L62.3549 17.5923C64.1864 18.1533 65.7591 18.6408 65.7591 19.9208V19.9848C65.7591 21.1627 64.731 22.041 63.0834 22.041C62.4413 22.041 60.394 22.0301 58.1881 20.6316C57.9205 20.4757 57.7639 20.3681 57.561 20.2374C57.4922 20.1938 57.1716 20.0686 57.0619 20.409L56.313 22.4924L56.3212 22.4978ZM94.3045 16.1196C94.3045 17.9579 93.9613 19.4081 93.29 20.4362C92.6201 21.4507 91.6083 21.9477 90.199 21.9477C88.7896 21.9477 87.7819 21.4548 87.1215 20.443C86.4563 19.4217 86.1207 17.9647 86.1207 16.1264C86.1207 14.2881 86.4584 12.8447 87.1215 11.8303C87.7806 10.8226 88.7828 10.3392 90.199 10.3392C91.6151 10.3392 92.6228 10.8274 93.29 11.8303C93.9654 12.8447 94.3045 14.2881 94.3045 16.1264V16.1196ZM97.4773 12.7154C97.1648 11.66 96.6807 10.7341 96.0339 9.95792C95.3864 9.18175 94.57 8.55536 93.5964 8.106C92.6296 7.65323 91.4858 7.42515 90.1922 7.42515C88.8985 7.42515 87.7615 7.6546 86.7879 8.106C85.8211 8.55809 84.9973 9.18175 84.3505 9.95792C83.705 10.7341 83.2202 11.66 82.9071 12.7154C82.5973 13.7639 82.44 14.9077 82.44 16.1264C82.44 17.3451 82.5973 18.489 82.9071 19.5375C83.2182 20.5928 83.7036 21.5188 84.3505 22.2949C84.9979 23.0711 85.8211 23.6907 86.7879 24.1332C87.7615 24.5744 88.9053 24.7991 90.1922 24.7991C91.479 24.7991 92.6228 24.5744 93.5896 24.1332C94.5564 23.692 95.3802 23.0711 96.027 22.2949C96.6732 21.5188 97.1573 20.5928 97.4705 19.5375C97.7796 18.489 97.9368 17.3451 97.9368 16.1264C97.9368 14.9145 97.7796 13.7639 97.4705 12.7154H97.4773ZM123.547 21.4303C123.443 21.1218 123.142 21.2383 123.142 21.2383C122.681 21.4146 122.189 21.578 121.664 21.6597C121.136 21.7428 120.548 21.7843 119.928 21.7843C118.396 21.7843 117.171 21.3274 116.299 20.4226C115.421 19.5171 114.931 18.06 114.938 16.0856C114.942 14.2881 115.377 12.94 116.156 11.9051C116.926 10.8839 118.11 10.3528 119.676 10.3528C120.984 10.3528 121.984 10.5046 123.033 10.8328C123.033 10.8328 123.282 10.9411 123.401 10.6136C123.679 9.84421 123.885 9.29272 124.184 8.44847C124.268 8.20677 124.061 8.10464 123.986 8.07536C123.574 7.91468 122.603 7.65119 121.868 7.54021C121.18 7.43536 120.384 7.38089 119.485 7.38089C118.151 7.38089 116.966 7.60898 115.951 8.06106C114.937 8.51247 114.079 9.13681 113.398 9.91298C112.717 10.6891 112.2 11.6151 111.853 12.6704C111.509 13.7189 111.335 14.8696 111.335 16.0883C111.335 18.7164 112.043 20.8474 113.446 22.4066C114.848 23.9726 116.959 24.7623 119.71 24.7623C121.337 24.7623 123.005 24.4335 124.203 23.9589C124.203 23.9589 124.432 23.8486 124.333 23.5817L123.55 21.4303H123.547ZM129.099 14.3494C129.251 13.3281 129.53 12.4771 129.97 11.8166C130.629 10.809 131.631 10.2575 133.041 10.2575C134.45 10.2575 135.383 10.8117 136.05 11.8166C136.493 12.4805 136.686 13.3622 136.758 14.3494L129.065 14.348L129.099 14.3494ZM139.788 12.1026C139.518 11.0881 138.848 10.06 138.413 9.59026C137.718 8.84813 137.044 8.32387 136.37 8.03792C135.397 7.62409 134.35 7.41174 133.293 7.41357C131.951 7.41357 130.733 7.6403 129.746 8.10123C128.758 8.56558 127.928 9.1974 127.274 9.98719C126.621 10.777 126.13 11.7097 125.817 12.7787C125.504 13.834 125.346 14.9914 125.346 16.2034C125.346 17.4425 125.51 18.5931 125.833 19.6349C126.159 20.6834 126.684 21.6025 127.392 22.3651C128.1 23.1344 129.005 23.7336 130.095 24.1557C131.177 24.5744 132.491 24.7916 133.996 24.7869C137.101 24.7766 138.735 24.0856 139.402 23.7111C139.521 23.6444 139.634 23.5293 139.493 23.1977L138.792 21.2301C138.684 20.9366 138.388 21.0429 138.388 21.0429C137.618 21.3302 136.529 21.8463 133.976 21.8394C132.308 21.8367 131.075 21.3445 130.299 20.5731C129.509 19.7833 129.114 18.6326 129.053 16.9986L139.811 17.0068C139.811 17.0068 140.094 17.004 140.123 16.7276C140.135 16.6132 140.491 14.5217 139.802 12.1046L139.788 12.1026ZM43.1072 14.3494C43.259 13.3281 43.5396 12.4771 43.9787 11.8166C44.6378 10.809 45.64 10.2575 47.0493 10.2575C48.4587 10.2575 49.3915 10.8117 50.0587 11.8166C50.5006 12.4805 50.6939 13.3622 50.7668 14.3494L43.0732 14.348L43.1072 14.3494ZM53.7966 12.1026C53.527 11.0881 52.857 10.06 52.4213 9.59026C51.7268 8.84813 51.0527 8.32387 50.3787 8.03792C49.4056 7.62409 48.3587 7.41174 47.3013 7.41357C45.96 7.41357 44.7413 7.6403 43.754 8.10123C42.7668 8.56558 41.9362 9.1974 41.2825 9.98719C40.631 10.777 40.1387 11.7097 39.8255 12.7787C39.513 13.834 39.3557 14.9914 39.3557 16.2034C39.3557 17.4425 39.5185 18.5931 39.8432 19.6349C40.1687 20.6834 40.6943 21.6025 41.3956 22.3651C42.1036 23.1344 43.0092 23.7336 44.0985 24.1557C45.1811 24.5744 46.4883 24.7916 47.9998 24.7869C51.1045 24.7766 52.7385 24.0856 53.4058 23.7111C53.5242 23.6444 53.6373 23.5293 53.4963 23.1977L52.7951 21.2301C52.6868 20.9366 52.3899 21.0429 52.3899 21.0429C51.6206 21.3302 50.5312 21.8463 47.978 21.8394C46.3168 21.8367 45.0776 21.3445 44.3014 20.5731C43.5116 19.7833 43.1168 18.6326 43.0555 16.9986L53.8129 17.0068C53.8129 17.0068 54.0962 17.004 54.1254 16.7276C54.137 16.6132 54.4938 14.5217 53.8041 12.1046L53.7966 12.1026ZM19.8902 21.3622C19.4688 21.0258 19.4102 20.9434 19.2706 20.7249C19.0575 20.396 18.9486 19.9283 18.9486 19.3291C18.9486 18.3896 19.2618 17.7087 19.9086 17.2526C19.9018 17.2539 20.8345 16.4492 23.0269 16.4764C24.0027 16.4939 24.9762 16.5769 25.9409 16.7249V21.6066H25.9423C25.9423 21.6066 24.5806 21.9 23.0419 21.9926C20.8563 22.124 19.8895 21.3635 19.8963 21.3656L19.8902 21.3622ZM24.1659 13.8047C23.7302 13.7727 23.1651 13.7571 22.4911 13.7571C21.5719 13.7571 20.68 13.8714 19.8493 14.0961C19.0119 14.3222 18.2562 14.6721 17.6094 15.1378C16.9608 15.6005 16.4273 16.2062 16.0502 16.908C15.6696 17.6161 15.4756 18.4468 15.4756 19.3863C15.4756 20.3395 15.641 21.1634 15.9678 21.8374C16.288 22.506 16.7701 23.084 17.3704 23.5191C17.9675 23.9535 18.7048 24.2749 19.5559 24.4655C20.4002 24.6582 21.3533 24.7555 22.4019 24.7555C23.5048 24.7555 24.601 24.6629 25.6631 24.4839C26.5677 24.3278 27.469 24.1526 28.3661 23.9583C28.7242 23.8759 29.1219 23.7676 29.1219 23.7676C29.3874 23.7002 29.367 23.4163 29.367 23.4163L29.3608 13.612C29.3608 11.4606 28.7862 9.86055 27.6519 8.87332C26.5217 7.88609 24.8672 7.38906 22.7225 7.38906C21.9191 7.38906 20.6187 7.498 19.8425 7.65392C19.8425 7.65392 17.5004 8.10872 16.5336 8.86583C16.5336 8.86583 16.3212 8.99655 16.4369 9.29272L17.1995 11.3353C17.2941 11.6001 17.5522 11.5096 17.5522 11.5096C17.5522 11.5096 17.6332 11.4776 17.7285 11.4211C19.7915 10.2977 22.4059 10.3317 22.4059 10.3317C23.5634 10.3317 24.4621 10.5666 25.0613 11.0262C25.6475 11.4762 25.9464 12.1564 25.9464 13.5862V14.0403C25.0272 13.9069 24.1762 13.8299 24.1762 13.8299L24.1659 13.8047ZM110.634 8.2694C110.65 8.23346 110.658 8.19485 110.658 8.15577C110.658 8.11662 110.65 8.07788 110.635 8.0418C110.62 8.00571 110.598 7.97303 110.57 7.94573C110.542 7.91836 110.509 7.89691 110.473 7.88268C110.29 7.81323 109.376 7.62055 108.675 7.57698C107.327 7.49255 106.578 7.71996 105.904 8.02226C105.238 8.32251 104.502 8.80523 104.093 9.36353L104.092 8.0563C104.092 7.87655 103.964 7.73153 103.783 7.73153H101.033C100.854 7.73153 100.725 7.87655 100.725 8.0563V24.0563C100.725 24.1427 100.76 24.2256 100.821 24.2867C100.882 24.3478 100.965 24.3822 101.051 24.3824H103.87C103.956 24.3822 104.039 24.3478 104.1 24.2866C104.161 24.2255 104.195 24.1427 104.195 24.0563V16.0223C104.195 14.9465 104.314 13.8776 104.55 13.2035C104.783 12.537 105.099 12.0052 105.49 11.624C105.862 11.2557 106.317 10.9825 106.817 10.8274C107.286 10.6927 107.772 10.6244 108.261 10.6245C108.822 10.6245 109.438 10.7688 109.438 10.7688C109.645 10.792 109.76 10.6653 109.831 10.4788C110.015 9.98787 110.539 8.51792 110.641 8.22515" fill="#676767"/>
<path fill-rule="evenodd" clip-rule="evenodd" d="M84.3057 0.884954C83.9571 0.779659 83.6031 0.695537 83.2443 0.633043C82.7622 0.552535 82.2734 0.514715 81.7845 0.520021C79.842 0.520021 78.3108 1.06879 77.2357 2.1527C76.1682 3.22845 75.4417 4.86726 75.0775 7.02351L74.946 7.75133H72.5079C72.5079 7.75133 72.2104 7.73907 72.1478 8.06384L71.7474 10.297C71.7195 10.5108 71.8114 10.6443 72.0974 10.6429H74.4708L72.0626 24.0849C71.8741 25.1675 71.6582 26.0581 71.4192 26.7328C71.1837 27.3986 70.9535 27.8977 70.6703 28.2599C70.3959 28.6106 70.1358 28.8686 69.6872 29.0191C69.3168 29.1437 68.8906 29.2009 68.4236 29.2009C68.1635 29.2009 67.8177 29.1573 67.5624 29.1062C67.307 29.0558 67.1743 28.9986 66.983 28.9183C66.983 28.9183 66.7045 28.8121 66.5949 29.0912C66.5057 29.3193 65.8732 31.0589 65.7983 31.274C65.722 31.4865 65.8289 31.654 65.9637 31.7023C66.2796 31.8153 66.5145 31.8875 66.9448 31.9889C67.5426 32.1299 68.0464 32.1387 68.5181 32.1387C69.5067 32.1387 70.4075 31.9998 71.1544 31.7302C71.906 31.4586 72.5603 30.9854 73.1391 30.3447C73.7648 29.6536 74.1583 28.9299 74.5348 27.9426C74.9072 26.9643 75.2245 25.7496 75.4785 24.3341L77.8982 10.6429H81.4359C81.4359 10.6429 81.7341 10.6538 81.7961 10.3304L82.1964 8.0972C82.2243 7.88341 82.1331 7.74997 81.8458 7.75133H78.4123C78.4293 7.67371 78.5852 6.46589 78.9794 5.32887C79.1476 4.84343 79.4642 4.45194 79.7324 4.183C79.983 3.92686 80.2914 3.73488 80.6318 3.62334C81.0049 3.50797 81.3944 3.45191 81.7845 3.45721C82.1079 3.45721 82.4252 3.49602 82.6669 3.5464C82.9998 3.61721 83.1292 3.65466 83.2163 3.68053C83.5663 3.78743 83.6133 3.68394 83.682 3.5144L84.5032 1.25943C84.5876 1.01704 84.382 0.914912 84.3057 0.884954ZM36.3235 24.1135C36.3235 24.2933 36.1955 24.4397 36.0158 24.4397H33.1678C32.9874 24.4397 32.8594 24.2933 32.8594 24.1135V1.19066C32.8594 1.0116 32.9874 0.866576 33.1678 0.866576H36.0158C36.1955 0.866576 36.3235 1.0116 36.3235 1.19066V24.1135Z" fill="#676767"/>
</g>
</g>
<defs>
<clipPath id="clip0_2964_1877">
<rect width="141" height="33" fill="white"/>
</clipPath>
</defs>
</svg>
