<svg width="167" height="73" viewBox="0 0 167 73" fill="none" xmlns="http://www.w3.org/2000/svg">
<g filter="url(#filter0_d_3012_3886)">
<path d="M6.97624 24.5673L4.54073 2.63477C4.44458 1.76891 5.4246 1.20271 6.12668 1.71851L24.49 15.2095C25.2685 15.7814 24.864 17.0153 23.8979 17.0153H14.1443C13.7922 17.0153 13.4661 17.2005 13.2856 17.5028L8.82879 24.9694C8.33759 25.7923 7.08201 25.5198 6.97624 24.5673Z" fill="#289562" stroke="white"/>
<rect x="17.7891" y="29.538" width="144" height="34" rx="1.5" fill="#289562"/>
<rect x="17.7891" y="29.538" width="144" height="34" rx="1.5" stroke="white"/>
<path d="M33.9781 52.038L37.4341 40.838H39.8021L43.2581 52.038H41.8661L41.0021 49.206H36.2341L35.3701 52.038H33.9781ZM36.5701 47.99H40.6501L38.7301 41.654H38.5061L36.5701 47.99ZM48.1363 52.262C47.1656 52.262 46.3443 52.038 45.6723 51.59C45.0109 51.142 44.6109 50.4327 44.4723 49.462L45.6723 49.19C45.7576 49.702 45.9176 50.1074 46.1523 50.406C46.3869 50.694 46.6749 50.902 47.0163 51.03C47.3683 51.1474 47.7416 51.206 48.1363 51.206C48.7229 51.206 49.1869 51.0887 49.5283 50.854C49.8696 50.6194 50.0403 50.3047 50.0403 49.91C50.0403 49.5047 49.8749 49.222 49.5443 49.062C49.2243 48.8914 48.7816 48.7527 48.2163 48.646L47.5603 48.534C47.0589 48.4487 46.6003 48.3154 46.1843 48.134C45.7683 47.9527 45.4376 47.7074 45.1923 47.398C44.9469 47.0887 44.8243 46.6994 44.8243 46.23C44.8243 45.526 45.0963 44.9767 45.6403 44.582C46.1843 44.1874 46.9043 43.99 47.8003 43.99C48.6856 43.99 49.4003 44.1927 49.9443 44.598C50.4989 44.9927 50.8563 45.5527 51.0163 46.278L49.8323 46.582C49.7363 46.0167 49.5069 45.622 49.1443 45.398C48.7816 45.1634 48.3336 45.046 47.8003 45.046C47.2669 45.046 46.8456 45.1474 46.5363 45.35C46.2269 45.542 46.0723 45.83 46.0723 46.214C46.0723 46.5874 46.2163 46.8647 46.5043 47.046C46.8029 47.2167 47.1976 47.3447 47.6883 47.43L48.3443 47.542C48.8989 47.638 49.3949 47.7714 49.8323 47.942C50.2803 48.102 50.6323 48.3367 50.8883 48.646C51.1549 48.9554 51.2883 49.3607 51.2883 49.862C51.2883 50.63 51.0003 51.222 50.4243 51.638C49.8589 52.054 49.0963 52.262 48.1363 52.262ZM53.4218 52.038V40.838H54.6858V45.462H54.9098C55.0164 45.2274 55.1764 45.0087 55.3898 44.806C55.6138 44.5927 55.8964 44.4167 56.2378 44.278C56.5898 44.1394 57.0324 44.07 57.5658 44.07C58.1524 44.07 58.6751 44.198 59.1338 44.454C59.6031 44.6994 59.9764 45.062 60.2538 45.542C60.5311 46.0114 60.6698 46.598 60.6698 47.302V52.038H59.4058V47.398C59.4058 46.6194 59.2084 46.054 58.8138 45.702C58.4298 45.35 57.9071 45.174 57.2458 45.174C56.4884 45.174 55.8698 45.4194 55.3898 45.91C54.9204 46.4007 54.6858 47.1314 54.6858 48.102V52.038H53.4218ZM63.2343 52.038V44.214H64.4983V52.038H63.2343ZM63.8743 42.998C63.5969 42.998 63.3623 42.9074 63.1703 42.726C62.9889 42.5447 62.8983 42.3154 62.8983 42.038C62.8983 41.75 62.9889 41.5154 63.1703 41.334C63.3623 41.1527 63.5969 41.062 63.8743 41.062C64.1516 41.062 64.3809 41.1527 64.5623 41.334C64.7436 41.5154 64.8343 41.75 64.8343 42.038C64.8343 42.3154 64.7436 42.5447 64.5623 42.726C64.3809 42.9074 64.1516 42.998 63.8743 42.998ZM70.3081 52.262C69.3375 52.262 68.5161 52.038 67.8441 51.59C67.1828 51.142 66.7828 50.4327 66.6441 49.462L67.8441 49.19C67.9295 49.702 68.0895 50.1074 68.3241 50.406C68.5588 50.694 68.8468 50.902 69.1881 51.03C69.5401 51.1474 69.9135 51.206 70.3081 51.206C70.8948 51.206 71.3588 51.0887 71.7001 50.854C72.0415 50.6194 72.2121 50.3047 72.2121 49.91C72.2121 49.5047 72.0468 49.222 71.7161 49.062C71.3961 48.8914 70.9535 48.7527 70.3881 48.646L69.7321 48.534C69.2308 48.4487 68.7721 48.3154 68.3561 48.134C67.9401 47.9527 67.6095 47.7074 67.3641 47.398C67.1188 47.0887 66.9961 46.6994 66.9961 46.23C66.9961 45.526 67.2681 44.9767 67.8121 44.582C68.3561 44.1874 69.0761 43.99 69.9721 43.99C70.8575 43.99 71.5721 44.1927 72.1161 44.598C72.6708 44.9927 73.0281 45.5527 73.1881 46.278L72.0041 46.582C71.9081 46.0167 71.6788 45.622 71.3161 45.398C70.9535 45.1634 70.5055 45.046 69.9721 45.046C69.4388 45.046 69.0175 45.1474 68.7081 45.35C68.3988 45.542 68.2441 45.83 68.2441 46.214C68.2441 46.5874 68.3881 46.8647 68.6761 47.046C68.9748 47.2167 69.3695 47.3447 69.8601 47.43L70.5161 47.542C71.0708 47.638 71.5668 47.7714 72.0041 47.942C72.4521 48.102 72.8041 48.3367 73.0601 48.646C73.3268 48.9554 73.4601 49.3607 73.4601 49.862C73.4601 50.63 73.1721 51.222 72.5961 51.638C72.0308 52.054 71.2681 52.262 70.3081 52.262ZM75.5936 52.038V40.838H76.8576V45.462H77.0816C77.1883 45.2274 77.3483 45.0087 77.5616 44.806C77.7856 44.5927 78.0683 44.4167 78.4096 44.278C78.7616 44.1394 79.2043 44.07 79.7376 44.07C80.3243 44.07 80.847 44.198 81.3056 44.454C81.775 44.6994 82.1483 45.062 82.4256 45.542C82.703 46.0114 82.8416 46.598 82.8416 47.302V52.038H81.5776V47.398C81.5776 46.6194 81.3803 46.054 80.9856 45.702C80.6016 45.35 80.079 45.174 79.4176 45.174C78.6603 45.174 78.0416 45.4194 77.5616 45.91C77.0923 46.4007 76.8576 47.1314 76.8576 48.102V52.038H75.5936ZM93.1799 52.262C92.3692 52.262 91.6439 52.118 91.0039 51.83C90.3639 51.542 89.8572 51.11 89.4839 50.534C89.1212 49.9474 88.9399 49.2167 88.9399 48.342V48.006H90.2679V48.342C90.2679 49.27 90.5399 49.9634 91.0839 50.422C91.6279 50.87 92.3265 51.094 93.1799 51.094C94.0545 51.094 94.7212 50.8967 95.1799 50.502C95.6385 50.1074 95.8679 49.6114 95.8679 49.014C95.8679 48.598 95.7612 48.2674 95.5479 48.022C95.3452 47.7767 95.0572 47.5794 94.6839 47.43C94.3105 47.27 93.8732 47.1314 93.3719 47.014L92.5399 46.806C91.8892 46.6354 91.3132 46.4274 90.8119 46.182C90.3105 45.9367 89.9159 45.6167 89.6279 45.222C89.3505 44.8167 89.2119 44.2994 89.2119 43.67C89.2119 43.0407 89.3665 42.4967 89.6759 42.038C89.9959 41.5794 90.4385 41.2274 91.0039 40.982C91.5799 40.7367 92.2412 40.614 92.9879 40.614C93.7452 40.614 94.4225 40.7474 95.0199 41.014C95.6279 41.27 96.1025 41.654 96.4439 42.166C96.7959 42.6674 96.9719 43.302 96.9719 44.07V44.742H95.6439V44.07C95.6439 43.526 95.5265 43.0887 95.2919 42.758C95.0679 42.4274 94.7532 42.182 94.3479 42.022C93.9532 41.862 93.4999 41.782 92.9879 41.782C92.2519 41.782 91.6599 41.9474 91.2119 42.278C90.7639 42.598 90.5399 43.0567 90.5399 43.654C90.5399 44.0487 90.6359 44.3687 90.8279 44.614C91.0199 44.8594 91.2919 45.062 91.6439 45.222C91.9959 45.3714 92.4172 45.5047 92.9079 45.622L93.7399 45.83C94.3905 45.9687 94.9719 46.1607 95.4839 46.406C96.0065 46.6407 96.4225 46.966 96.7319 47.382C97.0412 47.7874 97.1959 48.3207 97.1959 48.982C97.1959 49.6434 97.0305 50.2194 96.6999 50.71C96.3692 51.2007 95.8999 51.5847 95.2919 51.862C94.6945 52.1287 93.9905 52.262 93.1799 52.262ZM99.3124 52.038V40.838H100.576V45.462H100.8C100.907 45.2274 101.067 45.0087 101.28 44.806C101.504 44.5927 101.787 44.4167 102.128 44.278C102.48 44.1394 102.923 44.07 103.456 44.07C104.043 44.07 104.566 44.198 105.024 44.454C105.494 44.6994 105.867 45.062 106.144 45.542C106.422 46.0114 106.56 46.598 106.56 47.302V52.038H105.296V47.398C105.296 46.6194 105.099 46.054 104.704 45.702C104.32 45.35 103.798 45.174 103.136 45.174C102.379 45.174 101.76 45.4194 101.28 45.91C100.811 46.4007 100.576 47.1314 100.576 48.102V52.038H99.3124ZM111.525 52.262C110.981 52.262 110.485 52.166 110.037 51.974C109.589 51.782 109.237 51.5047 108.981 51.142C108.725 50.7794 108.597 50.3367 108.597 49.814C108.597 49.2807 108.725 48.8434 108.981 48.502C109.237 48.15 109.589 47.8887 110.037 47.718C110.485 47.5367 110.986 47.446 111.541 47.446H114.181V46.87C114.181 46.3154 114.016 45.878 113.685 45.558C113.365 45.238 112.885 45.078 112.245 45.078C111.616 45.078 111.125 45.2327 110.773 45.542C110.421 45.8407 110.181 46.246 110.053 46.758L108.869 46.374C108.997 45.9367 109.2 45.542 109.477 45.19C109.754 44.8274 110.122 44.5394 110.581 44.326C111.05 44.102 111.61 43.99 112.261 43.99C113.264 43.99 114.042 44.2514 114.597 44.774C115.152 45.286 115.429 46.0114 115.429 46.95V50.486C115.429 50.806 115.578 50.966 115.877 50.966H116.597V52.038H115.493C115.141 52.038 114.858 51.942 114.645 51.75C114.432 51.5474 114.325 51.2807 114.325 50.95V50.87H114.133C114.016 51.0727 113.856 51.286 113.653 51.51C113.461 51.7234 113.194 51.8994 112.853 52.038C112.512 52.1874 112.069 52.262 111.525 52.262ZM111.669 51.174C112.416 51.174 113.018 50.9554 113.477 50.518C113.946 50.07 114.181 49.446 114.181 48.646V48.47H111.589C111.088 48.47 110.672 48.582 110.341 48.806C110.021 49.0194 109.861 49.3447 109.861 49.782C109.861 50.2194 110.026 50.5607 110.357 50.806C110.698 51.0514 111.136 51.174 111.669 51.174ZM118.328 52.038V44.214H119.56V45.174H119.784C119.923 44.8327 120.136 44.582 120.424 44.422C120.712 44.262 121.091 44.182 121.56 44.182H122.488V45.334H121.48C120.915 45.334 120.456 45.494 120.104 45.814C119.763 46.1234 119.592 46.6087 119.592 47.27V52.038H118.328ZM124.359 52.038V44.214H125.591V45.19H125.815C125.965 44.9127 126.21 44.6567 126.551 44.422C126.893 44.1874 127.373 44.07 127.991 44.07C128.599 44.07 129.09 44.2034 129.463 44.47C129.847 44.7367 130.125 45.062 130.295 45.446H130.519C130.701 45.062 130.973 44.7367 131.335 44.47C131.709 44.2034 132.226 44.07 132.887 44.07C133.41 44.07 133.869 44.1767 134.263 44.39C134.658 44.6034 134.967 44.9127 135.191 45.318C135.426 45.7127 135.543 46.1874 135.543 46.742V52.038H134.279V46.854C134.279 46.3314 134.125 45.9207 133.815 45.622C133.517 45.3127 133.095 45.158 132.551 45.158C131.975 45.158 131.501 45.3447 131.127 45.718C130.765 46.0914 130.583 46.63 130.583 47.334V52.038H129.319V46.854C129.319 46.3314 129.165 45.9207 128.855 45.622C128.557 45.3127 128.135 45.158 127.591 45.158C127.015 45.158 126.541 45.3447 126.167 45.718C125.805 46.0914 125.623 46.63 125.623 47.334V52.038H124.359ZM140.525 52.262C139.981 52.262 139.485 52.166 139.037 51.974C138.589 51.782 138.237 51.5047 137.981 51.142C137.725 50.7794 137.597 50.3367 137.597 49.814C137.597 49.2807 137.725 48.8434 137.981 48.502C138.237 48.15 138.589 47.8887 139.037 47.718C139.485 47.5367 139.986 47.446 140.541 47.446H143.181V46.87C143.181 46.3154 143.016 45.878 142.685 45.558C142.365 45.238 141.885 45.078 141.245 45.078C140.616 45.078 140.125 45.2327 139.773 45.542C139.421 45.8407 139.181 46.246 139.053 46.758L137.869 46.374C137.997 45.9367 138.2 45.542 138.477 45.19C138.754 44.8274 139.122 44.5394 139.581 44.326C140.05 44.102 140.61 43.99 141.261 43.99C142.264 43.99 143.042 44.2514 143.597 44.774C144.152 45.286 144.429 46.0114 144.429 46.95V50.486C144.429 50.806 144.578 50.966 144.877 50.966H145.597V52.038H144.493C144.141 52.038 143.858 51.942 143.645 51.75C143.432 51.5474 143.325 51.2807 143.325 50.95V50.87H143.133C143.016 51.0727 142.856 51.286 142.653 51.51C142.461 51.7234 142.194 51.8994 141.853 52.038C141.512 52.1874 141.069 52.262 140.525 52.262ZM140.669 51.174C141.416 51.174 142.018 50.9554 142.477 50.518C142.946 50.07 143.181 49.446 143.181 48.646V48.47H140.589C140.088 48.47 139.672 48.582 139.341 48.806C139.021 49.0194 138.861 49.3447 138.861 49.782C138.861 50.2194 139.026 50.5607 139.357 50.806C139.698 51.0514 140.136 51.174 140.669 51.174Z" fill="white"/>
</g>
<defs>
<filter id="filter0_d_3012_3886" x="0.03125" y="1.02057" width="166.258" height="71.0175" filterUnits="userSpaceOnUse" color-interpolation-filters="sRGB">
<feFlood flood-opacity="0" result="BackgroundImageFix"/>
<feColorMatrix in="SourceAlpha" type="matrix" values="0 0 0 0 0 0 0 0 0 0 0 0 0 0 0 0 0 0 127 0" result="hardAlpha"/>
<feOffset dy="4"/>
<feGaussianBlur stdDeviation="2"/>
<feComposite in2="hardAlpha" operator="out"/>
<feColorMatrix type="matrix" values="0 0 0 0 0 0 0 0 0 0 0 0 0 0 0 0 0 0 0.1 0"/>
<feBlend mode="normal" in2="BackgroundImageFix" result="effect1_dropShadow_3012_3886"/>
<feBlend mode="normal" in="SourceGraphic" in2="effect1_dropShadow_3012_3886" result="shape"/>
</filter>
</defs>
</svg>
