<svg width="99" height="59" viewBox="0 0 99 59" fill="none" xmlns="http://www.w3.org/2000/svg">
<path d="M7.47818 23.2455L8.08167 5.7503C8.11181 4.87655 9.16969 4.45945 9.78803 5.07751L22.2794 17.5634C22.9218 18.2056 22.4445 19.3024 21.5368 19.2701L14.5868 19.0223C14.3089 19.0124 14.0395 19.1187 13.8431 19.3156L9.18569 23.9861C8.54431 24.6293 7.44687 24.1533 7.47818 23.2455Z" fill="black"/>
<rect x="15" y="24.7861" width="84" height="34" rx="4" fill="#0069E5"/>
<path d="M25.42 48.7861L29.42 34.7861H33.22L37.2 48.7861H34.98L34.06 45.4861H28.58L27.66 48.7861H25.42ZM29.12 43.4861H33.52L31.48 36.1261H31.16L29.12 43.4861ZM43.1967 49.0661C41.9434 49.0661 40.9034 48.7861 40.0767 48.2261C39.2501 47.6661 38.7434 46.8195 38.5567 45.6861L40.4767 45.2261C40.5834 45.7728 40.7634 46.2061 41.0167 46.5261C41.2701 46.8461 41.5834 47.0728 41.9567 47.2061C42.3434 47.3395 42.7567 47.4061 43.1967 47.4061C43.8501 47.4061 44.3501 47.2795 44.6967 47.0261C45.0567 46.7728 45.2367 46.4461 45.2367 46.0461C45.2367 45.6461 45.0701 45.3528 44.7367 45.1661C44.4034 44.9795 43.9101 44.8261 43.2567 44.7061L42.5767 44.5861C41.9101 44.4661 41.3034 44.2928 40.7567 44.0661C40.2101 43.8395 39.7767 43.5261 39.4567 43.1261C39.1367 42.7261 38.9767 42.2128 38.9767 41.5861C38.9767 40.6528 39.3234 39.9328 40.0167 39.4261C40.7101 38.9061 41.6301 38.6461 42.7767 38.6461C43.8834 38.6461 44.7901 38.8995 45.4967 39.4061C46.2167 39.8995 46.6834 40.5728 46.8967 41.4261L44.9767 41.9661C44.8567 41.3661 44.6034 40.9461 44.2167 40.7061C43.8301 40.4528 43.3501 40.3261 42.7767 40.3261C42.2167 40.3261 41.7767 40.4328 41.4567 40.6461C41.1367 40.8461 40.9767 41.1328 40.9767 41.5061C40.9767 41.9061 41.1301 42.1995 41.4367 42.3861C41.7567 42.5728 42.1834 42.7128 42.7167 42.8061L43.4167 42.9261C44.1234 43.0461 44.7701 43.2128 45.3567 43.4261C45.9434 43.6395 46.4034 43.9461 46.7367 44.3461C47.0834 44.7461 47.2567 45.2795 47.2567 45.9461C47.2567 46.9328 46.8901 47.6995 46.1567 48.2461C45.4234 48.7928 44.4367 49.0661 43.1967 49.0661ZM49.6645 48.7861V34.7861H51.7245V40.3261H52.0445C52.1779 40.0728 52.3645 39.8261 52.6045 39.5861C52.8579 39.3461 53.1845 39.1528 53.5845 39.0061C53.9979 38.8461 54.5179 38.7661 55.1445 38.7661C55.8912 38.7661 56.5512 38.9328 57.1245 39.2661C57.7112 39.5995 58.1712 40.0728 58.5045 40.6861C58.8379 41.2861 59.0045 42.0128 59.0045 42.8661V48.7861H56.9445V43.0261C56.9445 42.1728 56.7312 41.5461 56.3045 41.1461C55.8779 40.7328 55.2912 40.5261 54.5445 40.5261C53.6912 40.5261 53.0045 40.8061 52.4845 41.3661C51.9779 41.9261 51.7245 42.7395 51.7245 43.8061V48.7861H49.6645ZM61.9692 48.7861V38.9261H64.0292V48.7861H61.9692ZM63.0092 37.5861C62.6092 37.5861 62.2692 37.4595 61.9892 37.2061C61.7226 36.9395 61.5892 36.5995 61.5892 36.1861C61.5892 35.7728 61.7226 35.4395 61.9892 35.1861C62.2692 34.9195 62.6092 34.7861 63.0092 34.7861C63.4226 34.7861 63.7626 34.9195 64.0292 35.1861C64.2959 35.4395 64.4292 35.7728 64.4292 36.1861C64.4292 36.5995 64.2959 36.9395 64.0292 37.2061C63.7626 37.4595 63.4226 37.5861 63.0092 37.5861ZM71.1264 49.0661C69.8731 49.0661 68.8331 48.7861 68.0064 48.2261C67.1797 47.6661 66.6731 46.8195 66.4864 45.6861L68.4064 45.2261C68.5131 45.7728 68.6931 46.2061 68.9464 46.5261C69.1997 46.8461 69.5131 47.0728 69.8864 47.2061C70.2731 47.3395 70.6864 47.4061 71.1264 47.4061C71.7797 47.4061 72.2797 47.2795 72.6264 47.0261C72.9864 46.7728 73.1664 46.4461 73.1664 46.0461C73.1664 45.6461 72.9997 45.3528 72.6664 45.1661C72.3331 44.9795 71.8397 44.8261 71.1864 44.7061L70.5064 44.5861C69.8397 44.4661 69.2331 44.2928 68.6864 44.0661C68.1397 43.8395 67.7064 43.5261 67.3864 43.1261C67.0664 42.7261 66.9064 42.2128 66.9064 41.5861C66.9064 40.6528 67.2531 39.9328 67.9464 39.4261C68.6397 38.9061 69.5597 38.6461 70.7064 38.6461C71.8131 38.6461 72.7197 38.8995 73.4264 39.4061C74.1464 39.8995 74.6131 40.5728 74.8264 41.4261L72.9064 41.9661C72.7864 41.3661 72.5331 40.9461 72.1464 40.7061C71.7597 40.4528 71.2797 40.3261 70.7064 40.3261C70.1464 40.3261 69.7064 40.4328 69.3864 40.6461C69.0664 40.8461 68.9064 41.1328 68.9064 41.5061C68.9064 41.9061 69.0597 42.1995 69.3664 42.3861C69.6864 42.5728 70.1131 42.7128 70.6464 42.8061L71.3464 42.9261C72.0531 43.0461 72.6997 43.2128 73.2864 43.4261C73.8731 43.6395 74.3331 43.9461 74.6664 44.3461C75.0131 44.7461 75.1864 45.2795 75.1864 45.9461C75.1864 46.9328 74.8197 47.6995 74.0864 48.2461C73.3531 48.7928 72.3664 49.0661 71.1264 49.0661ZM77.5942 48.7861V34.7861H79.6542V40.3261H79.9742C80.1076 40.0728 80.2942 39.8261 80.5342 39.5861C80.7876 39.3461 81.1142 39.1528 81.5142 39.0061C81.9276 38.8461 82.4476 38.7661 83.0742 38.7661C83.8209 38.7661 84.4809 38.9328 85.0542 39.2661C85.6409 39.5995 86.1009 40.0728 86.4342 40.6861C86.7676 41.2861 86.9342 42.0128 86.9342 42.8661V48.7861H84.8742V43.0261C84.8742 42.1728 84.6609 41.5461 84.2342 41.1461C83.8076 40.7328 83.2209 40.5261 82.4742 40.5261C81.6209 40.5261 80.9342 40.8061 80.4142 41.3661C79.9076 41.9261 79.6542 42.7395 79.6542 43.8061V48.7861H77.5942Z" fill="#FEFEFE"/>
</svg>
