<svg width="54" height="38" viewBox="0 0 54 38" fill="none" xmlns="http://www.w3.org/2000/svg">
<g clip-path="url(#clip0_1337_84)">
<rect width="54" height="37" transform="translate(0 0.5)" fill="#3747BE"/>
<path d="M17.024 13.576H16.16L11.12 28H8.192L14.144 11.2H18.992L24.968 28H22.04L17.024 13.576ZM11.456 21.544H21.248V23.896H11.456V21.544ZM28.8048 23.392C28.9008 23.84 29.0848 24.248 29.3568 24.616C29.6448 24.968 30.0208 25.248 30.4848 25.456C30.9648 25.664 31.5328 25.768 32.1888 25.768C33.1968 25.768 33.9488 25.536 34.4448 25.072C34.9408 24.592 35.1888 24.032 35.1888 23.392C35.1888 22.864 35.0288 22.424 34.7088 22.072C34.4048 21.72 33.9728 21.424 33.4128 21.184C32.8528 20.928 32.2128 20.688 31.4928 20.464C30.8368 20.272 30.2048 20.072 29.5968 19.864C28.9888 19.64 28.4368 19.368 27.9408 19.048C27.4608 18.712 27.0768 18.288 26.7888 17.776C26.5008 17.248 26.3648 16.592 26.3808 15.808C26.3808 14.784 26.6208 13.92 27.1008 13.216C27.5808 12.496 28.2528 11.952 29.1168 11.584C29.9808 11.216 30.9728 11.032 32.0928 11.032C33.0368 11.032 33.8848 11.168 34.6368 11.44C35.4048 11.696 36.0528 12.08 36.5808 12.592C37.1088 13.088 37.5008 13.704 37.7568 14.44L35.1408 15.304C35.0448 14.952 34.8528 14.64 34.5648 14.368C34.2768 14.08 33.9168 13.856 33.4848 13.696C33.0688 13.536 32.6128 13.448 32.1168 13.432C31.5728 13.416 31.0848 13.496 30.6528 13.672C30.2368 13.848 29.9008 14.104 29.6448 14.44C29.3888 14.76 29.2608 15.136 29.2608 15.568C29.2608 16.064 29.4048 16.456 29.6928 16.744C29.9808 17.016 30.3568 17.248 30.8208 17.44C31.3008 17.616 31.8288 17.8 32.4048 17.992C33.0768 18.184 33.7408 18.408 34.3968 18.664C35.0688 18.904 35.6768 19.216 36.2208 19.6C36.7808 19.968 37.2288 20.44 37.5648 21.016C37.9008 21.592 38.0688 22.312 38.0688 23.176C38.0688 24.104 37.8528 24.944 37.4208 25.696C37.0048 26.448 36.3648 27.048 35.5008 27.496C34.6368 27.944 33.5648 28.168 32.2848 28.168C31.2448 28.168 30.2928 28.016 29.4288 27.712C28.5808 27.392 27.8688 26.944 27.2928 26.368C26.7328 25.776 26.3648 25.08 26.1888 24.28L28.8048 23.392ZM40.877 11.2H43.733V18.304H51.653V11.2H54.485V28H51.653V20.68H43.733V28H40.877V11.2Z" fill="#FEFEFE"/>
<path d="M58.0098 11.2H60.8658V28H58.0098V11.2ZM66.3048 23.392C66.4008 23.84 66.5848 24.248 66.8568 24.616C67.1448 24.968 67.5208 25.248 67.9848 25.456C68.4648 25.664 69.0328 25.768 69.6888 25.768C70.6968 25.768 71.4488 25.536 71.9448 25.072C72.4408 24.592 72.6888 24.032 72.6888 23.392C72.6888 22.864 72.5288 22.424 72.2088 22.072C71.9048 21.72 71.4728 21.424 70.9128 21.184C70.3528 20.928 69.7128 20.688 68.9928 20.464C68.3368 20.272 67.7048 20.072 67.0968 19.864C66.4888 19.64 65.9368 19.368 65.4408 19.048C64.9608 18.712 64.5768 18.288 64.2888 17.776C64.0008 17.248 63.8648 16.592 63.8808 15.808C63.8808 14.784 64.1208 13.92 64.6008 13.216C65.0808 12.496 65.7528 11.952 66.6168 11.584C67.4808 11.216 68.4728 11.032 69.5928 11.032C70.5368 11.032 71.3848 11.168 72.1368 11.44C72.9048 11.696 73.5528 12.08 74.0808 12.592C74.6088 13.088 75.0008 13.704 75.2568 14.44L72.6408 15.304C72.5448 14.952 72.3528 14.64 72.0648 14.368C71.7768 14.08 71.4168 13.856 70.9848 13.696C70.5688 13.536 70.1128 13.448 69.6168 13.432C69.0728 13.416 68.5848 13.496 68.1528 13.672C67.7368 13.848 67.4008 14.104 67.1448 14.44C66.8888 14.76 66.7608 15.136 66.7608 15.568C66.7608 16.064 66.9048 16.456 67.1928 16.744C67.4808 17.016 67.8568 17.248 68.3208 17.44C68.8008 17.616 69.3288 17.8 69.9048 17.992C70.5768 18.184 71.2408 18.408 71.8968 18.664C72.5688 18.904 73.1768 19.216 73.7208 19.6C74.2808 19.968 74.7288 20.44 75.0648 21.016C75.4008 21.592 75.5688 22.312 75.5688 23.176C75.5688 24.104 75.3528 24.944 74.9208 25.696C74.5048 26.448 73.8648 27.048 73.0008 27.496C72.1368 27.944 71.0648 28.168 69.7848 28.168C68.7448 28.168 67.7928 28.016 66.9288 27.712C66.0808 27.392 65.3688 26.944 64.7928 26.368C64.2328 25.776 63.8648 25.08 63.6888 24.28L66.3048 23.392ZM78.377 11.2H81.233V18.304H89.153V11.2H91.985V28H89.153V20.68H81.233V28H78.377V11.2Z" fill="#C2C6E8"/>
</g>
<defs>
<clipPath id="clip0_1337_84">
<rect width="54" height="37" fill="white" transform="translate(0 0.5)"/>
</clipPath>
</defs>
</svg>
