<svg width="54" height="38" viewBox="0 0 54 38" fill="none" xmlns="http://www.w3.org/2000/svg">
<g clip-path="url(#clip0_1337_84)">
<rect width="54" height="37" transform="translate(0 0.5)" fill="#3747BE"/>
<path d="M17.024 12.576H16.16L11.12 27H8.192L14.144 10.2H18.992L24.968 27H22.04L17.024 12.576ZM11.456 20.544H21.248V22.896H11.456V20.544ZM28.8048 22.392C28.9008 22.84 29.0848 23.248 29.3568 23.616C29.6448 23.968 30.0208 24.248 30.4848 24.456C30.9648 24.664 31.5328 24.768 32.1888 24.768C33.1968 24.768 33.9488 24.536 34.4448 24.072C34.9408 23.592 35.1888 23.032 35.1888 22.392C35.1888 21.864 35.0288 21.424 34.7088 21.072C34.4048 20.72 33.9728 20.424 33.4128 20.184C32.8528 19.928 32.2128 19.688 31.4928 19.464C30.8368 19.272 30.2048 19.072 29.5968 18.864C28.9888 18.64 28.4368 18.368 27.9408 18.048C27.4608 17.712 27.0768 17.288 26.7888 16.776C26.5008 16.248 26.3648 15.592 26.3808 14.808C26.3808 13.784 26.6208 12.92 27.1008 12.216C27.5808 11.496 28.2528 10.952 29.1168 10.584C29.9808 10.216 30.9728 10.032 32.0928 10.032C33.0368 10.032 33.8848 10.168 34.6368 10.44C35.4048 10.696 36.0528 11.08 36.5808 11.592C37.1088 12.088 37.5008 12.704 37.7568 13.44L35.1408 14.304C35.0448 13.952 34.8528 13.64 34.5648 13.368C34.2768 13.08 33.9168 12.856 33.4848 12.696C33.0688 12.536 32.6128 12.448 32.1168 12.432C31.5728 12.416 31.0848 12.496 30.6528 12.672C30.2368 12.848 29.9008 13.104 29.6448 13.44C29.3888 13.76 29.2608 14.136 29.2608 14.568C29.2608 15.064 29.4048 15.456 29.6928 15.744C29.9808 16.016 30.3568 16.248 30.8208 16.44C31.3008 16.616 31.8288 16.8 32.4048 16.992C33.0768 17.184 33.7408 17.408 34.3968 17.664C35.0688 17.904 35.6768 18.216 36.2208 18.6C36.7808 18.968 37.2288 19.44 37.5648 20.016C37.9008 20.592 38.0688 21.312 38.0688 22.176C38.0688 23.104 37.8528 23.944 37.4208 24.696C37.0048 25.448 36.3648 26.048 35.5008 26.496C34.6368 26.944 33.5648 27.168 32.2848 27.168C31.2448 27.168 30.2928 27.016 29.4288 26.712C28.5808 26.392 27.8688 25.944 27.2928 25.368C26.7328 24.776 26.3648 24.08 26.1888 23.28L28.8048 22.392ZM40.877 10.2H43.733V17.304H51.653V10.2H54.485V27H51.653V19.68H43.733V27H40.877V10.2Z" fill="#FEFEFE"/>
</g>
<defs>
<clipPath id="clip0_1337_84">
<rect width="54" height="37" fill="white" transform="translate(0 0.5)"/>
</clipPath>
</defs>
</svg>
