<svg width="34" height="36" viewBox="0 0 34 36" fill="none" xmlns="http://www.w3.org/2000/svg">
<mask id="mask0_1565_322" style="mask-type:alpha" maskUnits="userSpaceOnUse" x="5" y="8" width="25" height="24">
<rect x="5.20105" y="8" width="24" height="24" fill="#D9D9D9"/>
</mask>
<g mask="url(#mask0_1565_322)">
<path d="M17.201 27C14.7677 27 12.551 26.3208 10.551 24.9625C8.55105 23.6042 7.10105 21.7833 6.20105 19.5C7.10105 17.2167 8.55105 15.3958 10.551 14.0375C12.551 12.6792 14.7677 12 17.201 12C19.6344 12 21.851 12.6792 23.851 14.0375C25.851 15.3958 27.301 17.2167 28.201 19.5C27.301 21.7833 25.851 23.6042 23.851 24.9625C21.851 26.3208 19.6344 27 17.201 27ZM17.201 25C19.0844 25 20.8135 24.5042 22.3885 23.5125C23.9635 22.5208 25.1677 21.1833 26.0011 19.5C25.1677 17.8167 23.9635 16.4792 22.3885 15.4875C20.8135 14.4958 19.0844 14 17.201 14C15.3177 14 13.5885 14.4958 12.0135 15.4875C10.4385 16.4792 9.23438 17.8167 8.40105 19.5C9.23438 21.1833 10.4385 22.5208 12.0135 23.5125C13.5885 24.5042 15.3177 25 17.201 25Z" fill="#1C1B1F"/>
<rect x="15.2933" y="16.0742" width="3.81543" height="6.87891" fill="#1C1B1F"/>
</g>
<path d="M6.51501 13.1709L3.08282 9.73828" stroke="#1C1B1F" stroke-width="2" stroke-linecap="square"/>
<path d="M27.485 13.1709L30.9172 9.73828" stroke="#1C1B1F" stroke-width="2" stroke-linecap="square"/>
<path d="M17.2012 9.73794L17.2009 4.88379" stroke="#1C1B1F" stroke-width="2" stroke-linecap="square"/>
</svg>
