<svg width="306" height="122" viewBox="0 0 306 122" fill="none" xmlns="http://www.w3.org/2000/svg">
<g clip-path="url(#clip0_407_10)">
<path d="M306 0H0V121.125H306V0Z" fill="#3348C5"/>
<path d="M257.938 84.341H162.289C158.933 84.341 156.211 81.5821 156.211 78.1811C156.211 74.78 158.933 72.0211 162.289 72.0211H245.781V66.8032H156.211V37.0098H251.859C255.215 37.0098 257.938 39.7687 257.938 43.1698C257.938 46.5708 255.218 49.3298 251.859 49.3298H168.368V54.486H257.938V84.341Z" fill="white"/>
<path d="M143.795 84.341C140.439 84.341 137.717 81.5821 137.717 78.1811V49.3298H60.3035V78.1811C60.3035 81.5821 57.581 84.341 54.225 84.341C50.8689 84.341 48.1465 81.5821 48.1465 78.1811V37.0098H149.874V78.1811C149.874 81.5821 147.151 84.341 143.795 84.341Z" fill="white"/>
<path d="M143.159 66.8337H54.8676C51.5115 66.8337 48.7891 64.0747 48.7891 60.6737C48.7891 57.2726 51.5115 54.5137 54.8676 54.5137H143.159C146.515 54.5137 149.238 57.2726 149.238 60.6737C149.238 64.0747 146.515 66.8337 143.159 66.8337Z" fill="white"/>
</g>
<defs>
<clipPath id="clip0_407_10">
<rect width="306" height="121.125" fill="white"/>
</clipPath>
</defs>
</svg>
