<svg width="31" height="33" viewBox="0 0 31 33" fill="none" xmlns="http://www.w3.org/2000/svg">
<mask id="mask0_1495_164" style="mask-type:alpha" maskUnits="userSpaceOnUse" x="3" y="5" width="25" height="25">
<rect x="3.84637" y="5.05273" width="24" height="24" fill="#D9D9D9"/>
</mask>
<g mask="url(#mask0_1495_164)">
<path d="M15.8464 21.0527C17.0964 21.0527 18.1589 20.6152 19.0339 19.7402C19.9089 18.8652 20.3464 17.8027 20.3464 16.5527C20.3464 15.3027 19.9089 14.2402 19.0339 13.3652C18.1589 12.4902 17.0964 12.0527 15.8464 12.0527C14.5964 12.0527 13.5339 12.4902 12.6589 13.3652C11.7839 14.2402 11.3464 15.3027 11.3464 16.5527C11.3464 17.8027 11.7839 18.8652 12.6589 19.7402C13.5339 20.6152 14.5964 21.0527 15.8464 21.0527ZM15.8464 19.2527C15.0964 19.2527 14.4589 18.9902 13.9339 18.4652C13.4089 17.9402 13.1464 17.3027 13.1464 16.5527C13.1464 15.8027 13.4089 15.1652 13.9339 14.6402C14.4589 14.1152 15.0964 13.8527 15.8464 13.8527C16.5964 13.8527 17.2339 14.1152 17.7589 14.6402C18.2839 15.1652 18.5464 15.8027 18.5464 16.5527C18.5464 17.3027 18.2839 17.9402 17.7589 18.4652C17.2339 18.9902 16.5964 19.2527 15.8464 19.2527ZM15.8464 24.0527C13.413 24.0527 11.1964 23.3736 9.19637 22.0152C7.19637 20.6569 5.74637 18.8361 4.84637 16.5527C5.74637 14.2694 7.19637 12.4486 9.19637 11.0902C11.1964 9.7319 13.413 9.05273 15.8464 9.05273C18.2797 9.05273 20.4964 9.7319 22.4964 11.0902C24.4964 12.4486 25.9464 14.2694 26.8464 16.5527C25.9464 18.8361 24.4964 20.6569 22.4964 22.0152C20.4964 23.3736 18.2797 24.0527 15.8464 24.0527ZM15.8464 22.0527C17.7297 22.0527 19.4589 21.5569 21.0339 20.5652C22.6089 19.5736 23.813 18.2361 24.6464 16.5527C23.813 14.8694 22.6089 13.5319 21.0339 12.5402C19.4589 11.5486 17.7297 11.0527 15.8464 11.0527C13.963 11.0527 12.2339 11.5486 10.6589 12.5402C9.08387 13.5319 7.87971 14.8694 7.04637 16.5527C7.87971 18.2361 9.08387 19.5736 10.6589 20.5652C12.2339 21.5569 13.963 22.0527 15.8464 22.0527Z" fill="#1C1B1F"/>
</g>
<path d="M5.16034 10.2236L1.72815 6.79102" stroke="#1C1B1F" stroke-width="2" stroke-linecap="square"/>
<path d="M26.1303 10.2236L29.5625 6.79102" stroke="#1C1B1F" stroke-width="2" stroke-linecap="square"/>
<path d="M15.8466 6.79068L15.8463 1.93652" stroke="#1C1B1F" stroke-width="2" stroke-linecap="square"/>
<path d="M5.16034 22.9092L1.72815 26.3418" stroke="#1C1B1F" stroke-width="2" stroke-linecap="square"/>
<path d="M26.1303 22.9092L29.5625 26.3418" stroke="#1C1B1F" stroke-width="2" stroke-linecap="square"/>
<path d="M15.8466 26.3421L15.8463 31.1963" stroke="#1C1B1F" stroke-width="2" stroke-linecap="square"/>
<circle cx="15.8464" cy="16.4922" r="3.34863" fill="#1C1B1F"/>
</svg>
