<svg width="1377" height="585" viewBox="0 0 1377 585" fill="none" xmlns="http://www.w3.org/2000/svg">
<path d="M6.26404 0L6.26392 584.379M82.3605 0L82.3604 584.379M158.457 0L158.457 584.379M234.553 0L234.553 584.379M310.65 0L310.65 584.379M386.746 0L386.746 584.379M462.843 0L462.843 584.379M538.939 0L538.939 584.379M615.036 0L615.035 584.379M691.132 0L691.132 584.379M767.228 0L767.228 584.379M843.325 0L843.325 584.379M919.421 0L919.421 584.379M995.518 0L995.518 584.379M1071.61 0L1071.61 584.379M1147.71 0L1147.71 584.379M1223.81 0L1223.81 584.379M1299.9 0L1299.9 584.379M1376 0L1376 584.379M1376 50.1123L0 50.1123M1376 127.369L0 127.369M1376 204.625L0 204.625M1376 281.882L0 281.882M1376 359.138L0 359.138" stroke="url(#paint0_linear_2165_194)"/>
<defs>
<linearGradient id="paint0_linear_2165_194" x1="48.0883" y1="653.102" x2="1376" y2="79.4125" gradientUnits="userSpaceOnUse">
<stop stop-color="#666666" stop-opacity="0"/>
<stop offset="1" stop-opacity="0.1"/>
</linearGradient>
</defs>
</svg>
