<?xml version="1.0" encoding="UTF-8"?><svg id="Layer_1" xmlns="http://www.w3.org/2000/svg" viewBox="0 0 868.52 89.2"><defs><style>.cls-1{fill:#3348c5;stroke-width:0px;}</style></defs><path class="cls-1" d="m12.96,20.04l317.05,2.41c83.84.64,167.68,1.28,251.52,1.91-13.94,1.04-27.87,2.08-41.81,3.11l-286.1,21.31c-53.54,3.99-107.08,7.98-160.62,11.96-5.72.43-13.5,3.77-15.12,9.86-1.5,5.63,3.33,9.89,8.88,10.14,100.36,4.52,200.8,7.2,301.26,8.11,99.25.91,198.52.03,297.75-2.63,55.74-1.49,111.47-3.56,167.17-6.17,6.02-.28,14.74-4.41,15.53-11.16.84-7.1-7.56-9.12-12.89-8.87-99.15,4.65-198.38,7.54-297.63,8.64-94.37,1.04-187.62.46-281.55-1.73,33.36-2.49,66.72-4.97,100.08-7.46,95.37-7.1,190.74-14.21,286.1-21.31,53.54-3.99,107.08-7.98,160.62-11.96,6.03-.45,14.72-4.3,15.53-11.16.86-7.32-7.59-8.83-12.89-8.87-105.68-.8-211.37-1.61-317.05-2.41-105.12-.8-210.25-1.6-315.37-2.4C134.14.9,74.86.45,15.59,0,9.6-.05.83,4.64.06,11.16c-.86,7.32,7.59,8.83,12.89,8.87Z"/></svg>