<svg width="8" height="9" viewBox="0 0 8 9" fill="none" xmlns="http://www.w3.org/2000/svg">
<g clip-path="url(#clip0_2659_1763)">
<path d="M7.40781 0.665527H0.590625C0.264062 0.665527 0 0.92334 0 1.24209V8.0874C0 8.40615 0.264062 8.66553 0.590625 8.66553H7.40781C7.73438 8.66553 8 8.40615 8 8.08897V1.24209C8 0.92334 7.73438 0.665527 7.40781 0.665527ZM2.37344 7.48271H1.18594V3.66396H2.37344V7.48271ZM1.77969 3.14365C1.39844 3.14365 1.09063 2.83584 1.09063 2.45615C1.09063 2.07646 1.39844 1.76865 1.77969 1.76865C2.15938 1.76865 2.46719 2.07646 2.46719 2.45615C2.46719 2.83428 2.15938 3.14365 1.77969 3.14365ZM6.81719 7.48271H5.63125V5.62646C5.63125 5.18428 5.62344 4.61396 5.01406 4.61396C4.39687 4.61396 4.30312 5.09678 4.30312 5.59521V7.48271H3.11875V3.66396H4.25625V4.18584H4.27187C4.42969 3.88584 4.81719 3.56865 5.39375 3.56865C6.59531 3.56865 6.81719 4.35928 6.81719 5.3874V7.48271V7.48271Z" fill="black"/>
</g>
<defs>
<clipPath id="clip0_2659_1763">
<rect width="8" height="8" fill="white" transform="translate(0 0.665527)"/>
</clipPath>
</defs>
</svg>
