<svg width="8" height="9" viewBox="0 0 8 9" fill="none" xmlns="http://www.w3.org/2000/svg">
<path d="M8.00049 4.60808C8.00049 5.66785 7.82288 6.52749 7.60372 6.52749C7.38457 6.52749 7.20703 5.66808 7.20703 4.60808C7.20703 3.54807 7.38464 2.68866 7.60372 2.68866C7.82281 2.68866 8.00049 3.548 8.00049 4.60808Z" fill="black"/>
<path d="M6.98675 4.6081C6.98675 5.7912 6.48167 6.75068 5.85861 6.75068C5.23555 6.75068 4.73047 5.7912 4.73047 4.6081C4.73047 3.42499 5.23548 2.46552 5.85853 2.46552C6.48159 2.46552 6.98667 3.42469 6.98667 4.6081" fill="black"/>
<path d="M4.51248 4.60811C4.51248 5.86502 3.50231 6.88394 2.25628 6.88394C1.01024 6.88394 0 5.86479 0 4.60811C0 3.35144 1.01017 2.33221 2.25628 2.33221C3.50239 2.33221 4.51248 3.35121 4.51248 4.60811Z" fill="black"/>
</svg>
