<?xml version="1.0" encoding="UTF-8"?><svg id="Layer_1" xmlns="http://www.w3.org/2000/svg" viewBox="0 0 24.71 24.71"><defs><style>.cls-1{fill:#00000e;}</style></defs><path class="cls-1" d="M0,13.92v-3.13h4.93l4,.52.29-.64-3.25-2.44-3.48-3.54,2.2-2.15,3.48,3.48,2.49,3.19.64-.29-.52-4V0h3.13v4.93l-.52,4,.64.29,2.49-3.19,3.48-3.48,2.2,2.15-3.48,3.54-3.25,2.44.29.64,4-.52h4.93v3.13h-4.93l-4-.46-.29.58,3.25,2.49,3.48,3.48-2.2,2.2-3.48-3.48-2.49-3.25-.64.29.52,4v4.93h-3.13v-4.93l.52-4-.64-.29-2.49,3.25-3.48,3.48-2.2-2.2,3.48-3.48,3.25-2.49-.29-.58-4,.46H0Z"/></svg>