<svg width="26" height="25" viewBox="0 0 26 25" fill="none" xmlns="http://www.w3.org/2000/svg">
<path d="M0.711914 14.1641V11.0321H5.64191L9.64391 11.5541L9.93392 10.9161L6.68591 8.48014L3.20591 4.94214L5.40991 2.79614L8.88991 6.27614L11.3839 9.46614L12.0219 9.17614L11.4999 5.17414V0.244141H14.6319V5.17414L14.1099 9.17614L14.7479 9.46614L17.2419 6.27614L20.7219 2.79614L22.9259 4.94214L19.4459 8.48014L16.1979 10.9161L16.4879 11.5541L20.4899 11.0321H25.4199V14.1641H20.4899L16.4879 13.7001L16.1979 14.2801L19.4459 16.7741L22.9259 20.2541L20.7219 22.4581L17.2419 18.9781L14.7479 15.7301L14.1099 16.0201L14.6319 20.0221V24.9521H11.4999V20.0221L12.0219 16.0201L11.3839 15.7301L8.88991 18.9781L5.40991 22.4581L3.20591 20.2541L6.68591 16.7741L9.93392 14.2801L9.64391 13.7001L5.64191 14.1641H0.711914Z" fill="#0069E5"/>
</svg>
