<svg preserveAspectRatio="none" width="100%" height="100%" overflow="visible" style="display: block;" viewBox="0 0 202.823 243.179" fill="none" xmlns="http://www.w3.org/2000/svg">
<g id="Group 626162">
<rect id="Rectangle 192" x="21.2845" y="60.6295" width="160.19" height="160.776" stroke="var(--stroke-0, black)" stroke-width="2.16839"/>
<rect id="Rectangle 193" x="26.5408" y="65.9047" width="149.677" height="150.225" stroke="var(--stroke-0, black)" stroke-width="2.16839"/>
<path id="Vector 168" d="M19.5325 47.1339L10.479 40.9611L1.42554 49.6031L7.59838 59.4796L1.42554 67.2985L7.59838 77.1751L1.42554 86.6401L7.59838 95.6936L1.42554 103.101L7.59838 115.447L1.42554 120.385L7.59838 132.319L1.42554 140.55L7.59838 150.015L1.42554 158.657L7.59838 166.476L1.42554 177.587L7.59838 183.348L1.42554 194.048L7.59838 202.689L1.42554 211.743L7.59838 222.854L1.42554 233.142L10.479 240.138L19.5325 235.611L28.9976 240.138L38.0511 235.611L47.1046 240.138L56.1581 233.142L65.2116 240.138L73.442 235.611L80.4379 240.138L91.549 235.611L101.426 240.138L108.833 233.142L118.709 241.784L126.94 235.611L136.816 241.784L145.87 235.611L153.689 241.784L163.565 235.611L172.619 241.784L182.084 235.611L191.961 241.784L201.426 233.142L195.664 222.854L201.426 214.624L195.664 205.159L201.426 197.34L195.664 187.875L201.426 177.587L195.664 169.768L201.426 158.657L195.664 150.015L201.426 140.55L195.664 132.319L201.426 124.912L195.664 115.447L201.426 105.57L195.664 95.6936L201.426 86.6401L195.664 77.1751L201.426 70.1792L195.664 59.4796L201.426 52.0722L191.961 40.9611L182.084 47.1339L174.677 40.9611L163.565 47.1339L155.747 40.9611L145.87 47.1339L136.816 40.9611L126.94 47.1339L118.709 40.9611L111.302 47.1339L101.426 40.9611L91.549 47.1339L82.4955 40.9611L73.442 47.1339L65.2116 40.9611L56.1581 47.1339L47.1046 40.9611L38.0511 47.1339L28.9976 40.9611L19.5325 47.1339Z" stroke="var(--stroke-0, black)" stroke-width="2.16839"/>
<path id="Vector 169" d="M48.1828 42.5091L100.304 4.913L154.562 42.5091" stroke="var(--stroke-0, black)" stroke-width="2.16839"/>
<circle id="Ellipse 22" cx="101.373" cy="4.9131" r="4.9131" fill="var(--fill-0, black)"/>
</g>
</svg>
